<svg width="1440" height="410" viewBox="0 0 1440 410" fill="none" xmlns="http://www.w3.org/2000/svg">
<path d="M1301.84 236.042C1301.84 365.921 1194.94 318.513 1063.08 318.513C931.208 318.513 824.309 365.921 824.309 236.042C824.309 106.163 931.208 0.874512 1063.08 0.874512C1194.94 0.874512 1301.84 106.163 1301.84 236.042Z" fill="#F9861C"/>
<path d="M1287.11 239.62C1287.11 362.068 1186.41 331.707 1062.19 331.707C937.971 331.707 837.271 362.068 837.271 239.62C837.271 117.173 937.971 17.9092 1062.19 17.9092C1186.41 17.9092 1287.11 117.173 1287.11 239.62Z" fill="#F9A11C"/>
<path d="M1267.3 229.679C1267.3 337.828 1186.01 316.864 1073.22 316.864C960.424 316.864 858.848 337.828 858.848 229.679C858.848 121.531 950.284 33.8589 1063.08 33.8589C1175.87 33.8589 1267.3 121.531 1267.3 229.679Z" fill="#F9C81C"/>
<path d="M145.445 131.22L324.232 370.438H-33.3416L145.445 131.22Z" fill="#C4C4C4"/>
<path d="M323.055 26L498.411 367.882H147.698L323.055 26Z" fill="#C4C4C4"/>
<path d="M322.738 26.1646L322.738 365.408L224.348 369.531L146.713 369.531L322.738 26.1646Z" fill="#A5A5A5"/>
<path d="M582.26 53.7065L918.428 368.624H246.091L582.26 53.7065Z" fill="#E5DCDC"/>
<path d="M582.576 53.7065L916.406 366.563H582.576V53.7065Z" fill="#FBFAFA"/>
<path d="M437.447 147.382L596.887 374.479H278.007L437.447 147.382Z" fill="#C4C4C4"/>
<path d="M437.447 147.382V366.727H287.564L437.447 147.382Z" fill="#A5A5A5"/>
<path d="M818.333 131.22L1011.53 370.438H625.139L818.333 131.22Z" fill="#E5DCDC"/>
<path d="M818.333 131.22L1011.53 370.438H818.333V131.22Z" fill="#FBFAFA"/>
<path d="M1003.86 70.8584L1204.88 372.912H802.849L1003.86 70.8584Z" fill="#E5DCDC"/>
<path d="M1003.86 70.8584L1204.88 372.912H1003.86V70.8584Z" fill="#FBFAFA"/>
<path d="M1177.67 26L1320.65 374.067H1034.7L1177.67 26Z" fill="#C4C4C4"/>
<path d="M1177.83 26.6592L1185.97 366.844L1083.76 366.351L1006.61 365.978L1177.83 26.6592Z" fill="#A5A5A5"/>
<path d="M1096.08 156.288L1293.8 371.758H898.353L1096.08 156.288Z" fill="#C4C4C4"/>
<path d="M1309.81 163.214L1471.57 366.892H1147.41L1309.81 163.214Z" fill="#C4C4C4"/>
<path d="M1309.81 162.72L1309.81 376.293L1236.13 365.462L1143.92 365.462L1309.81 162.72Z" fill="#A5A5A5"/>
<path d="M382.152 218.298L572.464 366.728H191.839L382.152 218.298Z" fill="#878787"/>
<path d="M737.529 225.884L948.286 368.624H526.772L737.529 225.884Z" fill="#878787"/>
<path d="M737.529 225.884V368.624H526.772L737.529 225.884Z" fill="#7D7D7D"/>
<path d="M1096.23 152L1370.11 370.685H822.359L1096.23 152Z" fill="#878787"/>
<path d="M1096.23 152V370.685H822.359L1096.23 152Z" fill="#7D7D7D"/>
<path d="M1335.95 222.916L1430.49 367.882H1241.41L1335.95 222.916Z" fill="#878787"/>
<path d="M1335.95 222.916L1335.95 367.882H1241.41L1335.95 222.916Z" fill="#7D7D7D"/>
<path d="M1005.61 251.942L1084.09 368.954H927.122L1005.61 251.942Z" fill="#424242"/>
<path d="M1005.61 251.942L1084.09 368.954H1005.61V251.942Z" fill="#606060"/>
<path d="M700.613 281.627L782.528 370.19H618.698L700.613 281.627Z" fill="#424242"/>
<path d="M700.613 281.627L782.528 370.19H700.613V281.627Z" fill="#606060"/>
<path d="M144.97 131.714L147.559 366.727L66.5429 366.727L-36.9173 366.728L144.97 131.714Z" fill="#A5A5A5"/>
<path d="M850.496 319.56L932.411 367.8H768.581L850.496 319.56Z" fill="#424242"/>
<path d="M850.496 319.56L932.411 367.8H768.581L850.496 319.56Z" fill="#424242"/>
<path d="M850.496 319.56L932.411 367.8H768.581L850.496 319.56Z" fill="#424242"/>
<path d="M850.496 319.56L932.411 367.8H768.581L850.496 319.56Z" fill="#424242"/>
<path d="M1103.68 290.864L1185.6 367.305H1021.76L1103.68 290.864Z" fill="#424242"/>
<path d="M1103.68 290.864L1185.6 367.305H1103.68V290.864Z" fill="#606060"/>
<path d="M1267.66 268.434L1441.92 366.892H1093.41L1267.66 268.434Z" fill="#424242"/>
<path d="M1267.66 268.434L1441.92 366.892H1267.66V268.434Z" fill="#606060"/>
<path d="M850.496 319.56L932.411 367.8H768.581L850.496 319.56Z" fill="#424242"/>
<path d="M850.496 319.56L932.411 367.8H850.496V319.56Z" fill="#606060"/>
<path d="M155.268 246.994L310.729 367.717H-0.192566L155.268 246.994Z" fill="#878787"/>
<path d="M155.269 246.994V367.717H-0.634766L155.269 246.994Z" fill="#7D7D7D"/>
<path d="M382.152 218.298V366.728H191.84L382.152 218.298Z" fill="#7D7D7D"/>
<rect x="-37.8682" y="366.727" width="1510.87" height="39.911" fill="#545454"/>
<path d="M-38.0265 387.361L1472.84 387.361" stroke="#FFE600" stroke-width="9" stroke-dasharray="30 30"/>
<g clip-path="url(#clip0)">
<path d="M196.574 395.557H194.376V396.674L196.574 396.713V395.557Z" stroke="black" stroke-width="0.062504" stroke-miterlimit="10" stroke-linejoin="round"/>
<path d="M308.525 393.645C308.486 393.028 308.447 392.412 308.389 391.917C308.33 391.423 308.252 391.05 308.045 390.729C307.837 390.408 307.5 390.138 307.04 389.824C306.579 389.509 305.996 389.149 305.243 388.745C304.491 388.34 303.57 387.89 302.805 387.55C302.04 387.21 301.43 386.978 300.835 386.729C300.24 386.479 299.66 386.21 299.079 385.942L300.976 389.872L303.505 393.687L307.98 393.109L308.525 393.645V393.645Z" fill="#D0D4DF" stroke="black" stroke-width="0.062504" stroke-miterlimit="10" stroke-linejoin="round"/>
<path d="M230.656 399.757L208.99 399.295L208.897 391.804L213.006 385.515L218.702 383.665L226.92 384.775L233.551 389.399L232.71 395.04L230.656 399.757Z" fill="#32353E"/>
<path d="M294.439 400.127L273.334 400.219L273.053 392.266L279.31 385.607L289.583 385.237L294.252 387.919L295.653 395.78L294.439 400.127Z" fill="#32353E"/>
<path d="M196.983 396.655L194.375 396.658L194.376 397.926L196.38 397.888L196.983 396.655H196.983V396.655Z" fill="#2B2A2F" stroke="black" stroke-width="0.062504" stroke-miterlimit="10" stroke-linejoin="round"/>
<path d="M294.828 383.164C293.518 382.881 292.208 382.599 290.82 382.354C289.432 382.11 287.967 381.905 286.592 381.744C285.217 381.584 283.933 381.468 282.545 381.359C281.157 381.25 279.665 381.147 278.68 381.083C277.694 381.019 277.214 380.993 276.883 380.967C276.553 380.942 276.371 380.916 276.222 380.845C276.073 380.775 275.872 380.733 275.781 380.682C275.69 380.631 275.616 380.652 275.207 380.697C274.798 380.742 274.14 380.736 273.265 380.807C272.389 380.877 271.39 380.942 270.612 380.98C269.834 381.019 269.276 381.032 268.945 381.012C268.615 380.993 268.511 380.942 267.837 380.486C267.162 380.03 265.917 379.169 264.367 378.141C262.817 377.114 260.962 375.919 259.367 374.885C257.772 373.851 256.436 372.978 255.735 372.49C255.035 372.001 254.97 371.899 254.743 371.79C254.516 371.68 254.127 371.565 253.303 371.379C252.48 371.192 251.222 370.935 249.821 370.768C248.42 370.601 246.876 370.524 245.391 370.524C243.906 370.524 242.479 370.601 241.396 370.666C240.313 370.73 239.574 370.781 238.485 370.916C237.395 371.051 235.955 371.269 234.269 371.552C232.583 371.835 230.65 372.181 229.58 372.387C228.51 372.592 228.303 372.657 228.16 372.727C228.017 372.798 227.94 372.875 227.803 372.971C227.667 373.068 227.473 373.183 227.032 373.35C226.591 373.517 225.903 373.736 225.054 373.98C224.204 374.224 223.192 374.493 222.349 374.718C221.506 374.943 220.832 375.123 218.971 375.688C217.109 376.253 214.061 377.204 212.382 377.737C210.702 378.27 210.391 378.385 210.203 378.43C210.015 378.475 209.95 378.45 209.898 378.424L209.768 378.353C209.729 378.334 209.69 378.321 209.612 378.334C209.535 378.347 209.418 378.385 209.262 378.405C209.107 378.424 208.912 378.424 208.776 378.398C208.64 378.373 208.562 378.321 208.419 378.34C208.277 378.36 208.069 378.45 207.784 378.565C207.498 378.681 207.135 378.822 206.636 378.983C206.136 379.143 205.501 379.323 204.729 379.516C203.957 379.708 203.049 379.914 202.485 380.042C201.921 380.171 201.701 380.222 201.195 380.441C200.689 380.659 199.898 381.044 199.236 381.597C198.575 382.149 198.043 382.868 197.518 383.555C196.992 384.243 196.474 384.898 196.078 385.476C195.682 386.054 195.41 386.555 195.131 387.03C194.852 387.505 194.567 387.955 194.385 388.302C194.204 388.649 194.126 388.893 194.1 389.207C194.074 389.522 194.1 389.907 194.158 390.305C194.217 390.704 194.307 391.115 194.398 391.481C194.489 391.847 194.58 392.168 194.658 392.489C194.736 392.81 194.8 393.131 194.846 393.478C194.891 393.825 194.917 394.197 194.962 394.583C195.008 394.968 195.073 395.366 195.163 395.687C195.254 396.009 195.371 396.253 195.553 396.413C195.734 396.574 195.981 396.651 196.24 396.677C196.499 396.702 196.772 396.677 198.426 396.747C200.079 396.818 203.114 396.985 204.697 397.087C206.279 397.19 206.409 397.229 206.519 397.28C206.629 397.332 206.72 397.396 206.824 397.524C206.928 397.653 207.044 397.845 207.109 398.044C207.174 398.244 207.187 398.449 207.155 398.635C207.122 398.822 207.044 398.989 206.966 399.123C206.889 399.258 206.811 399.361 206.733 399.464H209.612L210.313 398.539C210.274 397.961 210.235 397.383 210.229 396.721C210.222 396.06 210.248 395.315 210.319 394.602C210.391 393.889 210.507 393.208 210.683 392.592C210.858 391.975 211.091 391.423 211.428 390.813C211.766 390.203 212.207 389.535 212.699 388.957C213.192 388.379 213.737 387.891 214.353 387.467C214.969 387.043 215.657 386.683 216.409 386.381C217.161 386.079 217.978 385.835 218.847 385.713C219.716 385.591 220.637 385.591 221.513 385.688C222.388 385.784 223.218 385.977 223.958 386.234C224.697 386.491 225.346 386.812 225.988 387.248C226.63 387.685 227.265 388.237 227.771 388.77C228.277 389.304 228.653 389.817 228.964 390.35C229.276 390.883 229.522 391.436 229.71 391.937C229.898 392.438 230.028 392.887 230.106 393.241C230.183 393.594 230.21 393.851 230.235 394.108C231.351 394.197 232.466 394.287 233.647 394.371C234.827 394.454 236.072 394.531 237.136 394.647C238.199 394.763 239.081 394.917 239.95 395.097C240.819 395.276 241.675 395.482 242.544 395.662C243.413 395.842 244.295 395.996 245.515 396.124C246.734 396.253 248.29 396.355 252.363 396.407C256.436 396.458 263.025 396.458 267.071 396.471C271.118 396.484 272.623 396.51 274.127 396.535C274.112 396.16 274.096 395.785 274.127 395.328C274.158 394.871 274.236 394.331 274.368 393.792C274.501 393.252 274.687 392.713 274.882 392.242C275.077 391.772 275.279 391.372 275.598 390.878C275.917 390.385 276.353 389.799 276.843 389.268C277.333 388.736 277.878 388.258 278.353 387.896C278.828 387.534 279.232 387.287 279.699 387.063C280.166 386.84 280.695 386.64 281.427 386.462C282.158 386.285 283.092 386.131 284.05 386.1C285.007 386.069 285.987 386.162 286.851 386.347C287.715 386.532 288.462 386.809 289.139 387.125C289.816 387.441 290.423 387.796 290.945 388.212C291.466 388.628 291.902 389.106 292.299 389.638C292.696 390.169 293.054 390.755 293.357 391.41C293.661 392.065 293.91 392.79 294.089 393.522C294.268 394.254 294.376 394.994 294.431 395.657C294.485 396.319 294.485 396.905 294.447 397.514C294.408 398.123 294.33 398.755 294.19 399.379C294.05 400.003 293.847 400.62 293.645 401.236C294.688 401.144 295.731 401.051 296.307 400.974C296.882 400.897 296.991 400.836 297.147 400.805C297.303 400.774 297.505 400.774 298.657 400.689C299.809 400.604 301.91 400.435 303.318 400.312C304.727 400.188 305.443 400.111 305.964 400.08C306.486 400.05 306.813 400.065 307.132 400.042C307.451 400.019 307.762 399.957 308.034 399.811C308.307 399.664 308.54 399.433 308.641 399.31C308.742 399.186 308.711 399.171 308.626 399.032C308.54 398.894 308.4 398.631 308.33 398.47C308.26 398.308 308.26 398.246 308.307 397.738C308.353 397.229 308.447 396.273 308.494 395.464C308.54 394.655 308.54 393.992 308.517 393.445C308.494 392.898 308.447 392.466 308.338 392.142C308.229 391.819 308.058 391.603 307.832 391.395C307.606 391.187 307.326 390.986 307.023 390.832C306.719 390.678 306.392 390.57 305.933 390.408C305.474 390.246 304.882 390.031 304.244 389.753C303.606 389.476 302.921 389.137 302.174 388.72C301.427 388.304 300.618 387.811 299.871 387.31C299.124 386.809 298.439 386.3 297.816 385.823C297.194 385.345 296.633 384.898 296.182 384.512C295.731 384.127 295.388 383.803 295.181 383.589C294.973 383.374 294.9 383.269 294.828 383.164V383.164V383.164ZM219.729 379.118C219.418 379.015 219.107 378.912 218.925 378.796C218.744 378.681 218.692 378.552 218.692 378.424C218.692 378.296 218.744 378.167 218.86 378C218.977 377.833 219.159 377.628 219.483 377.384C219.807 377.139 220.274 376.857 221.221 376.459C222.168 376.061 223.595 375.547 225.761 374.905C227.927 374.262 230.832 373.492 233.283 372.952C235.735 372.413 237.732 372.104 239.613 371.899C241.494 371.693 243.258 371.591 244.84 371.565C246.422 371.539 247.823 371.591 248.939 371.68C250.054 371.77 250.884 371.899 251.662 372.104C252.441 372.31 253.167 372.592 254.14 373.106C255.113 373.62 256.332 374.365 257.746 375.29C259.159 376.215 260.768 377.319 262.194 378.308C263.621 379.297 264.866 380.171 266.111 381.044C264.996 381.044 263.881 381.044 260.716 380.967C257.551 380.89 252.337 380.736 247.836 380.646C243.335 380.556 239.548 380.53 236.163 380.441C232.778 380.351 229.794 380.197 227.395 380.042C224.995 379.888 223.179 379.734 221.999 379.58C220.819 379.426 220.274 379.272 219.729 379.118" fill="url(#paint0_linear)"/>
<path d="M294.828 383.164C293.518 382.881 292.208 382.599 290.82 382.354C289.432 382.11 287.967 381.905 286.592 381.744C285.217 381.584 283.933 381.468 282.545 381.359C281.157 381.25 279.665 381.147 278.68 381.083C277.694 381.019 277.214 380.993 276.883 380.967C276.553 380.942 276.371 380.916 276.222 380.845C276.073 380.775 275.872 380.733 275.781 380.682C275.69 380.631 275.616 380.652 275.207 380.697C274.798 380.742 274.14 380.736 273.265 380.807C272.389 380.877 271.39 380.942 270.612 380.98C269.834 381.019 269.276 381.032 268.945 381.012C268.615 380.993 268.511 380.942 267.837 380.486C267.162 380.03 265.917 379.169 264.367 378.141C262.817 377.114 260.962 375.919 259.367 374.885C257.772 373.851 256.436 372.978 255.735 372.49C255.035 372.001 254.97 371.899 254.743 371.79C254.516 371.68 254.127 371.565 253.303 371.379C252.48 371.192 251.222 370.935 249.821 370.768C248.42 370.601 246.876 370.524 245.391 370.524C243.906 370.524 242.479 370.601 241.396 370.666C240.313 370.73 239.574 370.781 238.485 370.916C237.395 371.051 235.955 371.269 234.269 371.552C232.583 371.835 230.65 372.181 229.58 372.387C228.51 372.592 228.303 372.657 228.16 372.727C228.017 372.798 227.94 372.875 227.803 372.971C227.667 373.068 227.473 373.183 227.032 373.35C226.591 373.517 225.903 373.736 225.054 373.98C224.204 374.224 223.192 374.493 222.349 374.718C221.506 374.943 220.832 375.123 218.971 375.688C217.109 376.253 214.061 377.204 212.382 377.737C210.702 378.27 210.391 378.385 210.203 378.43C210.015 378.475 209.95 378.45 209.898 378.424L209.768 378.353C209.729 378.334 209.69 378.321 209.612 378.334C209.535 378.347 209.418 378.385 209.262 378.405C209.107 378.424 208.912 378.424 208.776 378.398C208.64 378.373 208.562 378.321 208.419 378.34C208.277 378.36 208.069 378.45 207.784 378.565C207.498 378.681 207.135 378.822 206.636 378.983C206.136 379.143 205.501 379.323 204.729 379.516C203.957 379.708 203.049 379.914 202.485 380.042C201.921 380.171 201.701 380.222 201.195 380.441C200.689 380.659 199.898 381.044 199.236 381.597C198.575 382.149 198.043 382.868 197.518 383.555C196.992 384.243 196.474 384.898 196.078 385.476C195.682 386.054 195.41 386.555 195.131 387.03C194.852 387.505 194.567 387.955 194.385 388.302C194.204 388.649 194.126 388.893 194.1 389.207C194.074 389.522 194.1 389.907 194.158 390.305C194.217 390.704 194.307 391.115 194.398 391.481C194.489 391.847 194.58 392.168 194.658 392.489C194.736 392.81 194.8 393.131 194.846 393.478C194.891 393.825 194.917 394.197 194.962 394.583C195.008 394.968 195.073 395.366 195.163 395.687C195.254 396.009 195.371 396.253 195.553 396.413C195.734 396.574 195.981 396.651 196.24 396.677C196.499 396.702 196.772 396.677 198.426 396.747C200.079 396.818 203.114 396.985 204.697 397.087C206.279 397.19 206.409 397.229 206.519 397.28C206.629 397.332 206.72 397.396 206.824 397.524C206.928 397.653 207.044 397.845 207.109 398.044C207.174 398.244 207.187 398.449 207.155 398.635C207.122 398.822 207.044 398.989 206.966 399.123C206.889 399.258 206.811 399.361 206.733 399.464H209.612L210.313 398.539C210.274 397.961 210.235 397.383 210.229 396.721C210.222 396.06 210.248 395.315 210.319 394.602C210.391 393.889 210.507 393.208 210.683 392.592C210.858 391.975 211.091 391.423 211.428 390.813C211.766 390.203 212.207 389.535 212.699 388.957C213.192 388.379 213.737 387.891 214.353 387.467C214.969 387.043 215.657 386.683 216.409 386.381C217.161 386.079 217.978 385.835 218.847 385.713C219.716 385.591 220.637 385.591 221.513 385.688C222.388 385.784 223.218 385.977 223.958 386.234C224.697 386.491 225.346 386.812 225.988 387.248C226.63 387.685 227.265 388.237 227.771 388.77C228.277 389.304 228.653 389.817 228.964 390.35C229.276 390.883 229.522 391.436 229.71 391.937C229.898 392.438 230.028 392.887 230.106 393.241C230.183 393.594 230.21 393.851 230.235 394.108C231.351 394.197 232.466 394.287 233.647 394.371C234.827 394.454 236.072 394.531 237.136 394.647C238.199 394.763 239.081 394.917 239.95 395.097C240.819 395.276 241.675 395.482 242.544 395.662C243.413 395.842 244.295 395.996 245.515 396.124C246.734 396.253 248.29 396.355 252.363 396.407C256.436 396.458 263.025 396.458 267.071 396.471C271.118 396.484 272.623 396.51 274.127 396.535C274.112 396.16 274.096 395.785 274.127 395.328C274.158 394.871 274.236 394.331 274.368 393.792C274.501 393.252 274.687 392.713 274.882 392.242C275.077 391.772 275.279 391.372 275.598 390.878C275.917 390.385 276.353 389.799 276.843 389.268C277.333 388.736 277.878 388.258 278.353 387.896C278.828 387.534 279.232 387.287 279.699 387.063C280.166 386.84 280.695 386.64 281.427 386.462C282.158 386.285 283.092 386.131 284.05 386.1C285.007 386.069 285.987 386.162 286.851 386.347C287.715 386.532 288.462 386.809 289.139 387.125C289.816 387.441 290.423 387.796 290.945 388.212C291.466 388.628 291.902 389.106 292.299 389.638C292.696 390.169 293.054 390.755 293.357 391.41C293.661 392.065 293.91 392.79 294.089 393.522C294.268 394.254 294.376 394.994 294.431 395.657C294.485 396.319 294.485 396.905 294.447 397.514C294.408 398.123 294.33 398.755 294.19 399.379C294.05 400.003 293.847 400.62 293.645 401.236C294.688 401.144 295.731 401.051 296.307 400.974C296.882 400.897 296.991 400.836 297.147 400.805C297.303 400.774 297.505 400.774 298.657 400.689C299.809 400.604 301.91 400.435 303.318 400.312C304.727 400.188 305.443 400.111 305.964 400.08C306.486 400.05 306.813 400.065 307.132 400.042C307.451 400.019 307.762 399.957 308.034 399.811C308.307 399.664 308.54 399.433 308.641 399.31C308.742 399.186 308.711 399.171 308.626 399.032C308.54 398.894 308.4 398.631 308.33 398.47C308.26 398.308 308.26 398.246 308.307 397.738C308.353 397.229 308.447 396.273 308.494 395.464C308.54 394.655 308.54 393.992 308.517 393.445C308.494 392.898 308.447 392.466 308.338 392.142C308.229 391.819 308.058 391.603 307.832 391.395C307.606 391.187 307.326 390.986 307.023 390.832C306.719 390.678 306.392 390.57 305.933 390.408C305.474 390.246 304.882 390.031 304.244 389.753C303.606 389.476 302.921 389.137 302.174 388.72C301.427 388.304 300.618 387.811 299.871 387.31C299.124 386.809 298.439 386.3 297.816 385.823C297.194 385.345 296.633 384.898 296.182 384.512C295.731 384.127 295.388 383.803 295.181 383.589C294.973 383.374 294.9 383.269 294.828 383.164V383.164V383.164ZM219.729 379.118C219.418 379.015 219.107 378.912 218.925 378.796C218.744 378.681 218.692 378.552 218.692 378.424C218.692 378.296 218.744 378.167 218.86 378C218.977 377.833 219.159 377.628 219.483 377.384C219.807 377.139 220.274 376.857 221.221 376.459C222.168 376.061 223.595 375.547 225.761 374.905C227.927 374.262 230.832 373.492 233.283 372.952C235.735 372.413 237.732 372.104 239.613 371.899C241.494 371.693 243.258 371.591 244.84 371.565C246.422 371.539 247.823 371.591 248.939 371.68C250.054 371.77 250.884 371.899 251.662 372.104C252.441 372.31 253.167 372.592 254.14 373.106C255.113 373.62 256.332 374.365 257.746 375.29C259.159 376.215 260.768 377.319 262.194 378.308C263.621 379.297 264.866 380.171 266.111 381.044C264.996 381.044 263.881 381.044 260.716 380.967C257.551 380.89 252.337 380.736 247.836 380.646C243.335 380.556 239.548 380.53 236.163 380.441C232.778 380.351 229.794 380.197 227.395 380.042C224.995 379.888 223.179 379.734 221.999 379.58C220.819 379.426 220.274 379.272 219.729 379.118V379.118Z" fill="#FF0000" stroke="black" stroke-width="0.050001" stroke-miterlimit="10" stroke-linejoin="round"/>
<path d="M200.066 394.232C200.436 394.216 201.124 394.21 201.821 394.226C202.518 394.242 203.225 394.281 203.902 394.313C204.58 394.345 205.229 394.371 205.657 394.409C206.085 394.448 206.292 394.499 206.458 394.56C206.623 394.621 206.746 394.692 206.856 394.791C206.967 394.891 207.064 395.019 207.148 395.164C207.233 395.308 207.304 395.469 207.349 395.652C207.395 395.835 207.414 396.04 207.395 396.22C207.375 396.4 207.317 396.554 207.197 396.702C207.077 396.85 206.895 396.991 206.71 397.074C206.526 397.158 206.338 397.184 205.806 397.18C205.274 397.177 204.398 397.145 203.338 397.09C202.278 397.036 201.033 396.959 200.358 396.898C199.684 396.837 199.58 396.792 199.47 396.692C199.36 396.593 199.243 396.439 199.145 396.288C199.048 396.137 198.97 395.989 198.928 395.822C198.886 395.655 198.88 395.469 198.896 395.331C198.912 395.193 198.951 395.103 199.029 394.981C199.107 394.859 199.223 394.704 199.324 394.586C199.424 394.467 199.509 394.383 199.577 394.329C199.645 394.274 199.697 394.249 200.066 394.232V394.232V394.232Z" fill="#2B2A2F" stroke="black" stroke-width="0.062504" stroke-miterlimit="10" stroke-linejoin="round"/>
<path d="M230.054 394.429C230.002 394.737 230.002 395.367 229.95 396.15C229.898 396.934 229.795 397.871 229.723 398.475C229.652 399.079 229.613 399.348 229.606 399.625C229.6 399.901 229.626 400.183 229.665 400.338C229.704 400.492 229.756 400.517 231.597 400.498C233.439 400.479 237.071 400.414 239.561 400.357C242.052 400.299 243.401 400.248 245.495 400.203C247.59 400.158 250.43 400.119 252.694 400.119C254.957 400.119 256.643 400.158 258.433 400.222C260.223 400.286 262.117 400.376 263.868 400.466C265.619 400.556 267.227 400.646 268.576 400.697C269.925 400.748 271.014 400.761 271.78 400.781C272.545 400.8 272.986 400.826 273.278 400.813C273.57 400.8 273.712 400.748 273.829 400.639C273.946 400.53 274.037 400.363 274.075 399.676C274.114 398.989 274.101 397.781 274.082 397.165C274.062 396.548 274.037 396.523 273.985 396.51C273.933 396.497 273.855 396.497 273.148 396.484C272.441 396.471 271.105 396.445 270.405 396.451C269.704 396.457 269.64 396.494 269.498 396.505C269.357 396.516 269.139 396.501 265.559 396.489C261.979 396.476 255.037 396.467 251.197 396.431C247.356 396.394 246.617 396.33 245.696 396.195C244.775 396.06 243.673 395.855 242.447 395.613C241.221 395.371 239.872 395.093 238.751 394.901C237.629 394.709 236.734 394.603 235.761 394.517C234.788 394.431 233.738 394.366 232.954 394.313C232.171 394.26 231.656 394.22 231.26 394.194C230.865 394.168 230.589 394.157 230.399 394.145C230.21 394.133 230.106 394.121 230.054 394.429" fill="url(#paint1_linear)"/>
<path d="M230.054 394.336C230.002 394.644 230.002 395.274 229.95 396.057C229.898 396.841 229.795 397.778 229.723 398.382C229.652 398.986 229.613 399.256 229.606 399.532C229.6 399.808 229.626 400.091 229.665 400.245C229.704 400.399 229.756 400.424 231.597 400.405C233.439 400.386 237.071 400.322 239.561 400.264C242.052 400.206 243.401 400.155 245.495 400.11C247.59 400.065 250.43 400.026 252.694 400.026C254.957 400.026 256.643 400.065 258.433 400.129C260.223 400.193 262.117 400.283 263.868 400.373C265.619 400.463 267.227 400.553 268.576 400.604C269.925 400.656 271.014 400.669 271.78 400.688C272.545 400.707 272.986 400.733 273.278 400.72C273.57 400.707 273.712 400.656 273.829 400.547C273.946 400.437 274.037 400.27 274.075 399.583C274.114 398.896 274.101 397.689 274.082 397.072C274.062 396.455 274.037 396.43 273.985 396.417C273.933 396.404 273.855 396.404 273.148 396.391C272.441 396.378 271.105 396.353 270.405 396.358C269.704 396.364 269.64 396.402 269.498 396.412C269.357 396.423 269.139 396.408 265.559 396.396C261.979 396.384 255.037 396.375 251.197 396.338C247.356 396.301 246.617 396.237 245.696 396.102C244.775 395.967 243.673 395.762 242.447 395.52C241.221 395.278 239.872 395 238.751 394.808C237.629 394.616 236.734 394.51 235.761 394.424C234.788 394.339 233.738 394.273 232.954 394.22C232.171 394.167 231.656 394.127 231.26 394.101C230.865 394.075 230.589 394.064 230.399 394.053C230.21 394.041 230.106 394.028 230.054 394.336V394.336Z" fill="#FF0000" stroke="black" stroke-width="0.062504" stroke-miterlimit="10" stroke-linejoin="round"/>
<path d="M219.73 379.117C220.274 379.272 220.819 379.426 221.999 379.58C223.18 379.734 224.995 379.888 227.395 380.042C229.795 380.196 232.778 380.351 236.163 380.44C239.548 380.53 243.336 380.556 247.836 380.646C252.337 380.736 257.551 380.89 260.716 380.967C263.881 381.044 264.996 381.044 266.112 381.044C264.866 380.171 263.621 379.297 262.195 378.308C260.768 377.319 259.16 376.215 257.746 375.29C256.332 374.365 255.113 373.62 254.14 373.106C253.167 372.592 252.441 372.31 251.663 372.104C250.884 371.899 250.054 371.77 248.939 371.68C247.823 371.59 246.423 371.539 244.84 371.565C243.258 371.59 241.494 371.693 239.613 371.899C237.732 372.104 235.735 372.412 233.284 372.952C230.832 373.491 227.927 374.262 225.761 374.904C223.595 375.547 222.168 376.06 221.221 376.459C220.274 376.857 219.807 377.139 219.483 377.383C219.159 377.627 218.977 377.833 218.86 378C218.744 378.167 218.692 378.295 218.692 378.424C218.692 378.552 218.744 378.681 218.925 378.796C219.107 378.912 219.418 379.015 219.73 379.117V379.117Z" fill="#5C6D7D" stroke="black" stroke-width="3.74999" stroke-miterlimit="10" stroke-linejoin="round"/>
<path d="M258.018 379.233C256.799 378.398 255.58 377.564 254.374 376.812C253.167 376.061 251.974 375.393 251.014 375.02C250.055 374.648 249.328 374.571 248.485 374.481C247.642 374.391 246.682 374.288 245.735 374.262C244.788 374.237 243.855 374.288 242.493 374.391C241.131 374.494 239.341 374.648 238.394 374.763C237.447 374.879 237.344 374.956 237.24 375.033C237.473 375.11 237.707 375.187 237.849 375.252C237.992 375.316 238.044 375.367 238.174 375.778C238.303 376.189 238.511 376.96 238.753 377.775C238.996 378.591 239.274 379.451 239.552 380.311L257.451 380.696L258.018 379.233" fill="#EAE7EA"/>
<path d="M272.941 380.827C272.397 380.868 271.854 380.909 271.167 380.948C270.48 380.988 269.648 381.026 269.125 380.994C268.602 380.962 268.388 380.861 267.191 380.071C265.995 379.281 263.816 377.802 261.758 376.436C259.701 375.07 257.765 373.815 256.685 373.111C255.606 372.407 255.382 372.253 255.251 372.138C255.119 372.024 255.08 371.948 255.061 371.853C255.042 371.758 255.042 371.642 255.1 371.565C255.158 371.488 255.275 371.449 255.411 371.42C255.547 371.392 255.703 371.372 255.829 371.382C255.956 371.392 256.053 371.43 257.318 372.104C258.582 372.779 261.014 374.089 263.813 375.649C266.611 377.208 269.776 379.018 272.941 380.827V380.827Z" fill="#F3F6F3" stroke="black" stroke-width="0.062504" stroke-miterlimit="10" stroke-linejoin="round"/>
<path d="M256.098 371.387C255.166 371.118 254.234 370.848 253.067 370.628C251.901 370.409 250.5 370.239 249.146 370.139C247.792 370.039 246.485 370.008 244.983 370.046C243.481 370.085 241.784 370.193 240.22 370.347C238.656 370.501 237.224 370.701 235.909 370.902C234.593 371.102 233.395 371.303 232.344 371.495C231.294 371.688 230.391 371.873 229.753 372.004C229.115 372.135 228.741 372.212 228.531 372.266C228.321 372.32 228.274 372.351 228.173 372.459C228.072 372.566 227.916 372.751 227.761 372.936C228.383 372.767 229.006 372.597 230.088 372.358C231.169 372.12 232.71 371.811 234.111 371.572C235.512 371.333 236.773 371.164 237.994 371.025C239.216 370.886 240.399 370.779 241.512 370.694C242.625 370.609 243.668 370.547 244.601 370.516C245.535 370.486 246.36 370.486 247.216 370.524C248.072 370.563 248.96 370.64 250.119 370.817C251.279 370.994 252.711 371.272 253.604 371.504C254.499 371.736 254.855 371.923 255.211 372.11C255.139 371.942 255.067 371.775 255.071 371.667C255.074 371.559 255.154 371.511 255.253 371.47C255.353 371.43 255.471 371.397 255.615 371.385C255.759 371.372 255.929 371.38 256.098 371.387" fill="url(#paint2_linear)"/>
<path d="M256.098 371.387C255.166 371.118 254.234 370.848 253.067 370.628C251.901 370.409 250.5 370.239 249.146 370.139C247.792 370.039 246.485 370.008 244.983 370.046C243.481 370.085 241.784 370.193 240.22 370.347C238.656 370.501 237.224 370.701 235.909 370.902C234.593 371.102 233.395 371.303 232.344 371.495C231.294 371.688 230.391 371.873 229.753 372.004C229.115 372.135 228.741 372.212 228.531 372.266C228.321 372.32 228.274 372.351 228.173 372.459C228.072 372.566 227.916 372.751 227.761 372.936C228.383 372.767 229.006 372.597 230.088 372.358C231.169 372.12 232.71 371.811 234.111 371.572C235.512 371.333 236.773 371.164 237.994 371.025C239.216 370.886 240.399 370.779 241.512 370.694C242.625 370.609 243.668 370.547 244.601 370.516C245.535 370.486 246.36 370.486 247.216 370.524C248.072 370.563 248.96 370.64 250.119 370.817C251.279 370.994 252.711 371.272 253.604 371.504C254.499 371.736 254.855 371.923 255.211 372.11C255.139 371.942 255.067 371.775 255.071 371.667C255.074 371.559 255.154 371.511 255.253 371.47C255.353 371.43 255.471 371.397 255.615 371.385C255.759 371.372 255.929 371.38 256.098 371.387V371.387V371.387Z" stroke="black" stroke-width="0.062504" stroke-miterlimit="10" stroke-linejoin="round"/>
<path d="M228.274 372.197C227.698 372.32 227.123 372.443 226.64 372.559C226.158 372.675 225.768 372.783 225.574 372.852C225.379 372.921 225.379 372.952 225.379 373.045C225.379 373.137 225.379 373.291 225.404 373.431C225.429 373.571 225.478 373.697 225.527 373.823C225.871 373.733 226.215 373.643 226.591 373.524C226.967 373.406 227.376 373.258 227.638 373.093C227.901 372.929 228.018 372.748 228.099 372.596C228.181 372.443 228.228 372.32 228.274 372.197" fill="url(#paint3_linear)"/>
<path d="M228.274 372.197C227.698 372.32 227.123 372.443 226.64 372.559C226.158 372.675 225.768 372.783 225.574 372.852C225.379 372.921 225.379 372.952 225.379 373.045C225.379 373.137 225.379 373.291 225.404 373.431C225.429 373.571 225.478 373.697 225.527 373.823C225.871 373.733 226.215 373.643 226.591 373.524C226.967 373.406 227.376 373.258 227.638 373.093C227.901 372.929 228.018 372.748 228.099 372.596C228.181 372.443 228.228 372.32 228.274 372.197V372.197Z" stroke="black" stroke-width="0.062504" stroke-miterlimit="10" stroke-linejoin="round"/>
<path d="M214.36 376.775L225.255 373.569L225.333 373.892L214.453 377.052L214.36 376.775" fill="#2B2A2F"/>
<path d="M218.749 374.786C218.033 374.925 217.317 375.064 216.578 375.279C215.839 375.495 215.076 375.788 214.383 376.073C213.691 376.358 213.068 376.636 212.446 376.913" stroke="black" stroke-width="0.624997" stroke-miterlimit="10" stroke-linejoin="round"/>
<path d="M214.406 376.728C215.045 376.451 215.683 376.173 216.422 375.896C217.161 375.619 218.002 375.341 218.749 375.102C219.496 374.863 220.15 374.663 220.796 374.486C221.442 374.308 222.08 374.154 222.695 374.031C223.309 373.908 223.901 373.815 224.492 373.723" stroke="black" stroke-width="0.062504" stroke-miterlimit="10" stroke-linejoin="round"/>
<path d="M220.103 374.602L218.702 374.74L218.936 375.064L220.103 374.602Z" fill="#2B2A2F"/>
<path d="M212.445 376.914L211.418 376.96L210.111 377.191L208.943 377.376L208.71 377.33L207.75 377.523L207.939 378.347L208.26 378.275L208.348 378.593L208.757 378.532L208.684 378.203L209.034 378.116L208.946 377.798L209.267 377.668L210.858 377.191L212.025 377.052L212.492 376.914" fill="#2B2A2F"/>
<path d="M212.445 376.914L211.418 376.96L210.111 377.191L208.943 377.376L208.71 377.33L207.75 377.523L207.939 378.347L208.26 378.275L208.348 378.593L208.757 378.532L208.684 378.203L209.034 378.116L208.946 377.798L209.267 377.668L210.858 377.191L212.025 377.052L212.492 376.914" stroke="black" stroke-width="0.062504" stroke-miterlimit="10" stroke-linejoin="round"/>
<path d="M208.85 393.619C208.539 393.584 208.227 393.549 207.34 393.516C206.453 393.484 204.99 393.453 203.823 393.414C202.655 393.376 201.784 393.329 201.161 393.299C200.539 393.268 200.165 393.252 199.869 393.252C199.574 393.252 199.356 393.268 199.138 393.322C198.92 393.376 198.702 393.468 198.515 393.568C198.328 393.669 198.173 393.776 198.033 393.9C197.893 394.023 197.768 394.162 197.62 394.401C197.472 394.64 197.301 394.979 197.138 395.279C196.974 395.58 196.819 395.842 196.665 396.063C196.51 396.285 196.357 396.466 196.205 396.647" stroke="black" stroke-width="0.050001" stroke-miterlimit="10" stroke-linejoin="round"/>
<path d="M214.22 386.682C213.158 386.659 212.095 386.635 210.552 386.595C209.01 386.554 206.986 386.497 205.829 386.449C204.671 386.4 204.379 386.362 204.087 386.323" stroke="black" stroke-width="0.050001" stroke-miterlimit="10" stroke-linejoin="round"/>
<path d="M228.181 388.936C227.605 388.381 227.029 387.827 226.477 387.395C225.924 386.963 225.395 386.655 224.788 386.362C224.181 386.069 223.496 385.792 222.772 385.584C222.049 385.376 221.286 385.237 220.414 385.229C219.543 385.222 218.562 385.345 217.605 385.561C216.648 385.776 215.714 386.085 214.951 386.409C214.189 386.732 213.597 387.071 212.982 387.526C212.367 387.981 211.729 388.551 211.208 389.175C210.687 389.8 210.282 390.478 209.947 391.133C209.613 391.788 209.348 392.42 209.114 392.998C208.881 393.576 208.679 394.1 208.43 394.686C208.181 395.271 207.885 395.919 207.636 396.358C207.387 396.797 207.185 397.029 207.038 397.173C206.892 397.318 206.801 397.375 206.71 397.433" stroke="black" stroke-width="0.050001" stroke-miterlimit="10" stroke-linejoin="round"/>
<path d="M205.722 384.173L197.224 384.035L195.636 386.301H203.947L205.722 384.173Z" fill="#F92F2C" stroke="#323535" stroke-width="0.062504" stroke-miterlimit="10" stroke-linejoin="round"/>
<path d="M205.274 381.078C205.002 381.025 204.515 380.957 203.956 380.866C203.397 380.774 202.764 380.659 202.331 380.567C201.899 380.476 201.665 380.408 201.461 380.307C201.257 380.206 201.081 380.071 200.969 379.955C200.858 379.84 200.809 379.744 200.775 379.695C200.741 379.647 200.721 379.647 200.503 379.671C200.284 379.695 199.865 379.744 199.442 379.734C199.019 379.724 198.591 379.657 198.148 379.531C197.706 379.406 197.249 379.223 196.825 379.04C196.402 378.857 196.013 378.674 195.775 378.563C195.537 378.453 195.449 378.414 195.376 378.414C195.303 378.414 195.245 378.453 195.25 378.549C195.254 378.645 195.323 378.799 195.556 379.026C195.789 379.252 196.188 379.551 196.611 379.82C197.035 380.09 197.482 380.331 197.964 380.543C198.445 380.755 198.961 380.938 199.51 381.097C200.06 381.256 200.644 381.391 201.29 381.473C201.937 381.555 202.648 381.583 203.285 381.583C203.922 381.583 204.486 381.555 204.836 381.531C205.186 381.506 205.323 381.487 205.425 381.434C205.527 381.381 205.595 381.294 205.6 381.232C205.605 381.169 205.546 381.131 205.274 381.078V381.078Z" fill="#2B2A2F" stroke="black" stroke-width="0.062504" stroke-miterlimit="10" stroke-linejoin="round"/>
<path d="M196.003 379.729C195.935 379.811 195.896 380.062 195.931 380.278C195.965 380.495 196.072 380.678 196.232 380.88C196.393 381.083 196.607 381.304 196.791 381.531C196.976 381.757 197.132 381.988 197.253 382.205C197.375 382.422 197.463 382.624 197.521 382.817C197.579 383.009 197.609 383.192 197.788 383.202C197.968 383.212 198.299 383.048 198.674 382.826C199.048 382.605 199.467 382.325 199.749 382.133C200.031 381.94 200.177 381.834 200.23 381.781C200.284 381.728 200.245 381.728 200.05 381.685C199.856 381.641 199.505 381.555 199.107 381.425C198.708 381.295 198.26 381.121 197.837 380.909C197.414 380.697 197.015 380.447 196.757 380.259C196.5 380.071 196.383 379.946 196.276 379.84C196.169 379.734 196.072 379.647 196.003 379.729V379.729Z" fill="#2B2A2F" stroke="black" stroke-width="0.062504" stroke-miterlimit="10" stroke-linejoin="round"/>
<path d="M205.692 384.127C205.819 383.964 205.945 383.8 206.013 383.66C206.081 383.52 206.091 383.405 206.047 383.28C206.004 383.154 205.906 383.019 205.697 382.909C205.488 382.798 205.167 382.711 204.807 382.615C204.447 382.518 204.048 382.412 203.674 382.321C203.299 382.229 202.949 382.152 202.701 382.085C202.453 382.017 202.307 381.96 202.161 381.902" stroke="black" stroke-width="0.062504" stroke-miterlimit="10" stroke-linejoin="round"/>
<path d="M204.904 384.07C204.943 383.973 204.982 383.877 204.997 383.79C205.011 383.704 205.002 383.627 204.909 383.54C204.817 383.453 204.642 383.357 204.423 383.227C204.204 383.097 203.941 382.933 203.659 382.803C203.377 382.673 203.076 382.576 202.73 382.48C202.385 382.384 201.996 382.287 201.665 382.201C201.334 382.114 201.062 382.037 200.804 381.979C200.546 381.921 200.303 381.883 200.06 381.844" stroke="black" stroke-width="0.062504" stroke-miterlimit="10" stroke-linejoin="round"/>
<path d="M240.696 396.69C240.184 396.523 239.47 396.317 238.537 396.099C237.603 395.88 236.448 395.649 235.482 395.482C234.516 395.315 233.738 395.212 233.238 395.174C232.739 395.135 232.518 395.161 232.33 395.225C232.142 395.289 231.987 395.392 231.863 395.553C231.74 395.713 231.649 395.932 231.604 396.118C231.558 396.304 231.558 396.458 231.584 396.677C231.61 396.895 231.662 397.178 231.805 397.467C231.948 397.756 232.181 398.051 232.408 398.276C232.635 398.501 232.856 398.655 233.284 398.777C233.712 398.899 234.347 398.989 235.002 399.047C235.657 399.104 236.332 399.13 237.188 399.13C238.044 399.13 239.081 399.104 240.716 399.066C242.35 399.027 244.581 398.976 246.818 398.944C249.056 398.912 251.299 398.899 253.53 398.905C255.761 398.912 257.979 398.937 260.405 398.989C262.83 399.04 265.463 399.117 267.545 399.156C269.627 399.194 271.157 399.194 272.175 399.22C273.193 399.246 273.699 399.297 273.92 399.297C274.14 399.297 274.075 399.246 273.297 399.175C272.519 399.104 271.027 399.014 268.381 398.886C265.735 398.758 261.935 398.591 257.908 398.359C253.88 398.128 249.626 397.833 246.909 397.614C244.192 397.396 243.011 397.255 242.266 397.12C241.52 396.985 241.208 396.857 240.696 396.69V396.69Z" stroke="black" stroke-width="0.062504" stroke-miterlimit="10" stroke-linejoin="round"/>
<path d="M240.21 396.895C239.795 396.78 239.042 396.6 238.16 396.394C237.278 396.189 236.267 395.957 235.424 395.79C234.581 395.623 233.906 395.521 233.433 395.476C232.959 395.431 232.687 395.444 232.492 395.527C232.298 395.611 232.181 395.765 232.11 395.97C232.038 396.176 232.012 396.433 232.051 396.67C232.09 396.908 232.194 397.126 232.304 397.332C232.414 397.537 232.531 397.73 232.68 397.916C232.83 398.102 233.011 398.282 233.296 398.411C233.582 398.539 233.971 398.616 234.658 398.668C235.346 398.719 236.332 398.745 237.129 398.751C237.927 398.758 238.536 398.745 238.984 398.713C239.431 398.68 239.717 398.629 239.996 398.494C240.275 398.359 240.547 398.141 240.683 397.968C240.819 397.794 240.819 397.666 240.813 397.531C240.806 397.396 240.793 397.255 240.748 397.158C240.702 397.062 240.625 397.011 240.21 396.895V396.895Z" stroke="black" stroke-width="0.062504" stroke-miterlimit="10" stroke-linejoin="round"/>
<path d="M239.294 396.682C239.045 396.628 238.796 396.574 238.578 396.524C238.36 396.474 238.174 396.428 237.987 396.381C237.387 396.243 236.788 396.104 236.212 395.977C235.636 395.85 235.084 395.734 234.586 395.645C234.088 395.557 233.644 395.495 233.313 395.468C232.983 395.441 232.765 395.449 232.594 395.507C232.422 395.564 232.298 395.672 232.212 395.796C232.127 395.919 232.08 396.058 232.064 396.208C232.049 396.358 232.064 396.52 232.096 396.674C232.127 396.828 232.173 396.975 232.24 397.137C232.306 397.298 232.391 397.476 232.489 397.63C232.586 397.784 232.695 397.915 232.749 397.973C232.804 398.031 232.804 398.015 232.819 397.977C232.835 397.938 232.866 397.876 232.858 397.811C232.851 397.745 232.804 397.676 232.734 397.568C232.664 397.46 232.57 397.314 232.496 397.16C232.422 397.006 232.368 396.844 232.345 396.678C232.321 396.512 232.329 396.343 232.352 396.196C232.376 396.05 232.415 395.927 232.504 395.853C232.594 395.78 232.734 395.757 232.967 395.757C233.201 395.757 233.528 395.78 233.897 395.811C234.267 395.842 234.679 395.88 235.111 395.942C235.543 396.004 235.994 396.088 236.45 396.177C236.905 396.266 237.364 396.358 237.839 396.443C238.314 396.528 238.804 396.605 239.294 396.682L239.294 396.682Z" fill="#2B2A2F" stroke="black" stroke-width="0.062504" stroke-miterlimit="10" stroke-linejoin="round"/>
<path d="M235.294 382.2C235.232 382.046 235.092 381.861 234.804 381.738C234.516 381.615 234.08 381.553 233.558 381.53C233.037 381.507 232.43 381.522 231.87 381.561C231.309 381.599 230.796 381.661 230.414 381.776C230.033 381.892 229.784 382.062 229.605 382.254C229.426 382.447 229.317 382.663 229.27 382.948C229.224 383.233 229.239 383.588 229.348 384.05C229.457 384.512 229.66 385.083 229.94 385.669C230.22 386.254 230.578 386.855 230.967 387.356C231.356 387.857 231.776 388.258 232.274 388.589C232.772 388.921 233.348 389.183 233.893 389.399C234.438 389.614 234.951 389.784 235.442 389.9C235.932 390.015 236.399 390.077 236.702 390.061C237.006 390.046 237.146 389.953 237.247 389.807C237.348 389.661 237.411 389.46 237.395 389.268C237.38 389.075 237.286 388.89 237.099 388.574C236.913 388.258 236.632 387.811 236.383 387.295C236.134 386.778 235.916 386.193 235.737 385.669C235.559 385.144 235.418 384.682 235.341 384.304C235.263 383.927 235.247 383.634 235.255 383.364C235.263 383.094 235.294 382.848 235.317 382.663C235.341 382.478 235.356 382.355 235.294 382.2" fill="url(#paint4_radial)"/>
<path d="M235.294 382.2C235.232 382.046 235.092 381.861 234.804 381.738C234.516 381.615 234.08 381.553 233.558 381.53C233.037 381.507 232.43 381.522 231.87 381.561C231.309 381.599 230.796 381.661 230.414 381.776C230.033 381.892 229.784 382.062 229.605 382.254C229.426 382.447 229.317 382.663 229.27 382.948C229.224 383.233 229.239 383.588 229.348 384.05C229.457 384.512 229.66 385.083 229.94 385.669C230.22 386.254 230.578 386.855 230.967 387.356C231.356 387.857 231.776 388.258 232.274 388.589C232.772 388.921 233.348 389.183 233.893 389.399C234.438 389.614 234.951 389.784 235.442 389.9C235.932 390.015 236.399 390.077 236.702 390.061C237.006 390.046 237.146 389.953 237.247 389.807C237.348 389.661 237.411 389.46 237.395 389.268C237.38 389.075 237.286 388.89 237.099 388.574C236.913 388.258 236.632 387.811 236.383 387.295C236.134 386.778 235.916 386.193 235.737 385.669C235.559 385.144 235.418 384.682 235.341 384.304C235.263 383.927 235.247 383.634 235.255 383.364C235.263 383.094 235.294 382.848 235.317 382.663C235.341 382.478 235.356 382.355 235.294 382.2V382.2Z" fill="#FF0000" stroke="black" stroke-width="0.062504" stroke-miterlimit="10" stroke-linejoin="round"/>
<path d="M231.471 386.942C231.649 387.019 232.056 387.233 232.228 387.303C232.492 387.41 232.741 387.503 232.905 387.557C233.068 387.611 233.146 387.626 233.138 387.572C233.13 387.518 233.037 387.395 232.928 387.125C232.819 386.856 232.695 386.439 232.555 385.985C232.414 385.53 232.259 385.037 232.181 384.536C232.103 384.035 232.103 383.526 232.111 383.226C232.119 382.925 232.134 382.833 232.29 382.748C232.446 382.663 232.741 382.586 233.037 382.486C233.333 382.386 233.628 382.262 233.924 382.139C233.302 382.124 232.679 382.108 232.158 382.154C231.636 382.201 231.216 382.308 230.928 382.424C230.64 382.54 230.484 382.663 230.368 382.833C230.251 383.002 230.173 383.218 230.165 383.488C230.158 383.757 230.22 384.081 230.344 384.49C230.469 384.898 230.656 385.391 230.897 385.892C231.072 386.257 231.277 386.625 231.471 386.942V386.942Z" fill="#32353E" stroke="black" stroke-width="0.050001" stroke-miterlimit="10" stroke-linejoin="round"/>
<path d="M236.874 389.36C236.851 389.275 236.742 389.152 236.454 388.99C236.166 388.828 235.699 388.628 235.154 388.397C234.609 388.165 233.987 387.903 233.504 387.711C233.022 387.518 232.679 387.395 232.36 387.294C232.041 387.194 231.745 387.117 231.73 387.225C231.714 387.333 231.979 387.626 232.345 387.888C232.71 388.15 233.177 388.381 233.691 388.597C234.205 388.813 234.765 389.013 235.185 389.167C235.605 389.321 235.886 389.429 236.127 389.483C236.368 389.537 236.57 389.537 236.703 389.514C236.835 389.491 236.897 389.445 236.874 389.36Z" fill="#D5D8D8" stroke="black" stroke-width="0.050001" stroke-miterlimit="10" stroke-linejoin="round"/>
<path d="M231.474 386.944C231.548 387.064 231.621 387.176 231.691 387.279C231.948 387.657 232.166 387.903 232.516 388.127C232.866 388.35 233.348 388.551 233.878 388.759C234.407 388.967 234.983 389.183 235.411 389.321C235.839 389.46 236.119 389.522 236.368 389.537C236.617 389.553 236.835 389.522 236.944 389.468C237.053 389.414 237.053 389.337 237.014 389.213C236.975 389.09 236.897 388.921 236.765 388.666C236.633 388.412 236.446 388.073 236.259 387.695C236.072 387.317 235.885 386.901 235.714 386.501C235.543 386.1 235.387 385.715 235.232 385.329" fill="#FF0000"/>
<path d="M231.474 386.944C231.548 387.064 231.621 387.176 231.691 387.279C231.948 387.657 232.166 387.903 232.516 388.127C232.866 388.35 233.348 388.551 233.878 388.759C234.407 388.967 234.983 389.183 235.411 389.321C235.839 389.46 236.119 389.522 236.368 389.537C236.617 389.553 236.835 389.522 236.944 389.468C237.053 389.414 237.053 389.337 237.014 389.213C236.975 389.09 236.897 388.921 236.765 388.666C236.633 388.412 236.446 388.073 236.259 387.695C236.072 387.317 235.885 386.901 235.714 386.501C235.543 386.1 235.387 385.715 235.232 385.329" stroke="black" stroke-width="0.050001" stroke-miterlimit="10" stroke-linejoin="round"/>
<path d="M237.808 380.647C237.541 380.844 237.274 381.041 237.009 381.327C236.744 381.613 236.481 381.988 236.311 382.316C236.14 382.643 236.063 382.923 236.024 383.173C235.985 383.424 235.985 383.645 236.019 383.91C236.053 384.175 236.121 384.484 236.223 384.859C236.325 385.235 236.461 385.678 236.705 386.266C236.948 386.853 237.298 387.586 237.677 388.274C238.057 388.963 238.465 389.609 238.869 390.211C239.273 390.813 239.672 391.372 240.056 391.858C240.44 392.345 240.81 392.759 241.199 393.173C241.588 393.587 241.997 394.002 242.386 394.339C242.775 394.676 243.144 394.936 243.553 395.167C243.962 395.398 244.409 395.601 244.944 395.769C245.479 395.938 246.102 396.073 246.719 396.164C247.337 396.256 247.95 396.304 248.582 396.328C249.215 396.352 249.866 396.352 250.917 396.357C251.967 396.362 253.417 396.371 255.183 396.376C256.948 396.381 259.03 396.381 261.121 396.395C263.213 396.41 265.314 396.439 266.727 396.465C268.14 396.492 268.865 396.516 269.589 396.54C269.711 395.813 269.833 395.085 269.971 394.254C270.11 393.424 270.265 392.489 270.407 391.579C270.548 390.668 270.674 389.782 270.747 389.002C270.82 388.221 270.839 387.547 270.835 386.964C270.83 386.381 270.801 385.89 270.742 385.461C270.684 385.033 270.596 384.667 270.465 384.325C270.334 383.983 270.159 383.665 269.944 383.371C269.73 383.077 269.478 382.807 269.123 382.537C268.767 382.268 268.31 381.998 267.907 381.781C267.503 381.565 267.153 381.401 266.855 381.315C266.558 381.229 266.314 381.222 266.07 381.214" fill="url(#paint5_linear)"/>
<path d="M237.808 380.74C237.541 380.937 237.274 381.133 237.009 381.419C236.744 381.705 236.481 382.081 236.311 382.409C236.14 382.736 236.063 383.016 236.024 383.266C235.985 383.517 235.985 383.738 236.019 384.003C236.053 384.268 236.121 384.576 236.223 384.952C236.325 385.328 236.461 385.771 236.705 386.358C236.948 386.946 237.298 387.678 237.677 388.367C238.057 389.056 238.465 389.701 238.869 390.303C239.273 390.906 239.672 391.464 240.056 391.951C240.44 392.437 240.81 392.852 241.199 393.266C241.588 393.68 241.997 394.094 242.386 394.432C242.775 394.769 243.144 395.029 243.553 395.26C243.962 395.491 244.409 395.693 244.944 395.862C245.479 396.031 246.102 396.166 246.626 396.257C247.244 396.349 247.95 396.397 248.582 396.421C249.215 396.445 249.866 396.445 250.917 396.45C251.967 396.455 253.417 396.464 255.183 396.469C256.948 396.474 259.03 396.474 261.121 396.488C263.213 396.503 265.314 396.532 266.727 396.558C268.14 396.585 268.865 396.609 269.589 396.633C269.711 395.905 269.833 395.178 269.971 394.347C270.11 393.516 270.265 392.582 270.407 391.671C270.548 390.761 270.674 389.875 270.747 389.094C270.82 388.314 270.839 387.64 270.835 387.057C270.83 386.474 270.801 385.983 270.742 385.554C270.684 385.125 270.596 384.759 270.465 384.417C270.334 384.075 270.159 383.757 269.944 383.464C269.73 383.17 269.477 382.9 269.123 382.63C268.767 382.361 268.31 382.091 267.906 381.874C267.503 381.657 267.153 381.494 266.855 381.408C266.558 381.322 266.314 381.314 266.07 381.307" fill="#FF0000"/>
<path d="M237.808 380.74C237.541 380.937 237.274 381.133 237.009 381.419C236.744 381.705 236.481 382.081 236.311 382.409C236.14 382.736 236.063 383.016 236.024 383.266C235.985 383.517 235.985 383.738 236.019 384.003C236.053 384.268 236.121 384.576 236.223 384.952C236.325 385.328 236.461 385.771 236.705 386.358C236.948 386.946 237.298 387.678 237.677 388.367C238.057 389.056 238.465 389.701 238.869 390.303C239.273 390.906 239.672 391.464 240.056 391.951C240.44 392.437 240.81 392.852 241.199 393.266C241.588 393.68 241.997 394.094 242.386 394.432C242.775 394.769 243.144 395.029 243.553 395.26C243.962 395.491 244.409 395.693 244.944 395.862C245.479 396.031 246.102 396.166 246.626 396.257C247.244 396.349 247.95 396.397 248.582 396.421C249.215 396.445 249.866 396.445 250.917 396.45C251.967 396.455 253.417 396.464 255.183 396.469C256.948 396.474 259.03 396.474 261.121 396.488C263.213 396.503 265.314 396.532 266.727 396.558C268.14 396.585 268.865 396.609 269.589 396.633C269.711 395.905 269.833 395.178 269.971 394.347C270.11 393.516 270.265 392.582 270.407 391.671C270.548 390.761 270.674 389.875 270.747 389.094C270.82 388.314 270.839 387.64 270.835 387.057C270.83 386.474 270.801 385.983 270.742 385.554C270.684 385.125 270.596 384.759 270.465 384.417C270.334 384.075 270.159 383.757 269.944 383.464C269.73 383.17 269.477 382.9 269.123 382.63C268.767 382.361 268.31 382.091 267.906 381.874C267.503 381.657 267.153 381.494 266.855 381.408C266.558 381.322 266.314 381.314 266.07 381.307" stroke="black" stroke-width="0.162499" stroke-miterlimit="10" stroke-linejoin="round"/>
<path d="M259.287 377.276C259.108 377.392 258.89 377.638 258.742 377.939C258.594 378.239 258.516 378.594 258.516 378.964C258.516 379.334 258.594 379.719 258.719 379.973C258.843 380.228 259.014 380.351 259.224 380.451C259.434 380.551 259.683 380.628 260.049 380.652C260.415 380.675 260.897 380.644 261.287 380.582C261.676 380.521 261.971 380.428 262.189 380.297C262.407 380.166 262.547 379.996 262.648 379.819C262.75 379.642 262.812 379.457 262.843 379.311C262.874 379.164 262.874 379.056 262.82 378.91C262.765 378.763 262.656 378.578 262.431 378.37C262.205 378.162 261.863 377.931 261.489 377.731C261.115 377.53 260.711 377.361 260.415 377.276C260.119 377.191 259.933 377.191 259.769 377.184C259.606 377.176 259.466 377.16 259.287 377.276" fill="#32353E"/>
<path d="M301.414 388.225C301.333 388.185 301.074 388.141 300.976 388.081C300.198 387.606 299.475 387.04 298.729 386.52C297.983 386 297.399 385.512 296.744 384.96C296.439 384.702 296.062 384.411 295.752 384.121C295.398 383.789 295.112 383.457 294.779 383.145C295.233 383.241 295.687 383.337 296.005 383.398C296.323 383.459 296.504 383.485 296.744 383.652C296.984 383.819 297.283 384.127 297.691 384.545C298.1 384.962 298.619 385.489 299.163 386.022C299.708 386.555 300.279 387.094 300.658 387.463C301.038 387.831 301.226 388.028 301.414 388.225V388.225Z" fill="#949791" stroke="black" stroke-width="0.062504" stroke-miterlimit="10" stroke-linejoin="round"/>
<path d="M300.684 387.879C300.379 388.041 300.075 388.204 299.786 388.317C299.497 388.431 299.225 388.495 298.661 388.54C298.097 388.585 297.241 388.61 296.358 388.604C295.477 388.597 294.569 388.559 293.738 388.533C292.908 388.508 292.156 388.495 291.404 388.482" stroke="black" stroke-width="0.062504" stroke-miterlimit="10" stroke-linejoin="round"/>
<path d="M308.272 393.723C307.98 393.606 307.396 393.568 307.092 393.587C306.787 393.606 306.761 393.684 306.748 394.416C306.735 395.148 306.735 396.535 306.754 397.229C306.774 397.922 306.813 397.922 307.027 397.999C307.241 398.076 307.63 398.231 307.87 398.312C308.11 398.393 308.201 398.4 308.262 398.134C308.324 397.869 308.356 397.329 308.402 396.632C308.447 395.935 308.505 395.081 308.534 394.557C308.564 394.033 308.564 393.839 308.272 393.723" fill="#888282"/>
<path d="M307.857 392.849C307.747 392.887 307.474 392.861 307.169 392.804C306.865 392.746 306.527 392.656 306.06 392.605C305.593 392.553 304.997 392.54 304.614 392.508C304.232 392.476 304.063 392.425 303.862 392.322C303.661 392.219 303.427 392.065 303.226 391.859C303.025 391.654 302.857 391.397 302.766 391.204C302.675 391.012 302.662 390.883 302.708 390.8C302.753 390.716 302.857 390.678 303.376 390.671C303.894 390.665 304.828 390.691 305.477 390.729C306.125 390.768 306.488 390.819 306.741 390.877C306.994 390.935 307.137 390.999 307.26 391.089C307.383 391.179 307.487 391.294 307.572 391.493C307.656 391.693 307.721 391.975 307.766 392.174C307.811 392.373 307.837 392.489 307.876 392.598C307.915 392.707 307.967 392.81 307.857 392.849V392.849Z" fill="#888282" stroke="black" stroke-width="1.87499" stroke-miterlimit="10" stroke-linejoin="round"/>
<path d="M303.518 391.076C303.985 391.076 304.893 391.128 305.379 391.166C305.866 391.205 305.931 391.23 305.976 391.262C306.021 391.294 306.047 391.333 306.086 391.526C306.125 391.718 306.177 392.065 306.164 392.239C306.151 392.412 306.073 392.412 305.762 392.399C305.451 392.386 304.906 392.361 304.53 392.335C304.154 392.309 303.946 392.284 303.784 392.2C303.622 392.117 303.505 391.975 303.388 391.828C303.272 391.68 303.155 391.526 303.09 391.417C303.025 391.307 303.012 391.243 303.019 391.185C303.025 391.128 303.051 391.076 303.518 391.076Z" fill="white" stroke="#A6A6A6" stroke-width="0.062504" stroke-miterlimit="10" stroke-linejoin="round"/>
<path d="M293.505 391.387C293.194 390.755 292.883 390.123 292.486 389.545C292.089 388.967 291.606 388.443 291.062 387.981C290.517 387.518 289.91 387.118 289.147 386.755C288.385 386.393 287.466 386.069 286.47 385.877C285.474 385.684 284.4 385.622 283.388 385.676C282.377 385.73 281.427 385.9 280.571 386.177C279.715 386.455 278.952 386.84 278.237 387.279C277.521 387.719 276.851 388.212 276.26 388.759C275.668 389.306 275.155 389.907 274.703 390.632C274.252 391.356 273.863 392.204 273.583 393.09C273.303 393.977 273.131 394.902 273.015 395.472C272.898 396.042 272.836 396.258 272.773 396.474" stroke="black" stroke-width="0.050001" stroke-miterlimit="10" stroke-linejoin="round"/>
<path d="M309.342 402.768C308.612 402.624 306.764 402.479 303.748 402.359C300.733 402.239 296.55 402.142 293.631 402.142C290.713 402.142 289.059 402.239 286.165 402.239C283.271 402.239 279.137 402.142 274.784 402.094C270.431 402.046 265.859 402.046 261.189 402.046C256.52 402.046 251.753 402.046 245.819 402.046C239.885 402.046 232.784 402.046 227.069 402.046C221.354 402.046 217.025 402.046 212.891 402.046C208.756 402.046 204.817 402.046 202.263 402.07C199.71 402.094 198.542 402.142 197.764 402.166C196.986 402.19 196.597 402.19 196.354 402.239C196.11 402.287 196.013 402.383 195.964 402.455C195.916 402.528 195.916 402.576 196.256 402.648C196.597 402.72 197.278 402.817 199.637 402.865C201.996 402.913 206.033 402.913 210.508 402.913C214.982 402.913 219.895 402.913 226.242 402.913C232.589 402.913 240.372 402.913 248.957 402.937C257.541 402.961 266.929 403.009 274.37 403.057C281.812 403.106 287.308 403.154 291.856 403.202C296.404 403.25 300.003 403.298 302.459 403.322C304.916 403.346 306.229 403.346 307.177 403.322C308.126 403.298 308.709 403.25 309.196 403.154C309.682 403.057 310.071 402.913 309.342 402.768Z" fill="#32353E"/>
<path d="M284.285 389.894C286.893 389.894 289.007 391.987 289.007 394.57C289.007 397.152 286.893 399.246 284.285 399.246C281.677 399.246 279.563 397.152 279.563 394.57C279.563 391.987 281.677 389.894 284.285 389.894" fill="url(#paint6_linear)"/>
<path d="M284.285 389.894C286.893 389.894 289.007 391.987 289.007 394.57C289.007 397.152 286.893 399.246 284.285 399.246C281.677 399.246 279.563 397.152 279.563 394.57C279.563 391.987 281.677 389.894 284.285 389.894V389.894Z" stroke="#35343C" stroke-width="0.111737" stroke-miterlimit="10" stroke-linejoin="round"/>
<path d="M281.692 397.978L281.657 390.434H280.996L279.431 392.122L279.466 396.359L280.718 397.943L281.692 397.978" fill="#D51319"/>
<path d="M284.285 387.517C288.218 387.517 291.407 390.674 291.407 394.569C291.407 398.465 288.218 401.622 284.285 401.622C280.352 401.622 277.163 398.465 277.163 394.569C277.163 390.674 280.352 387.517 284.285 387.517V387.517ZM278.404 394.158L278.363 394.182L282.921 393.512L282.08 389.146C280.042 389.964 278.564 391.882 278.404 394.158V394.158ZM282.883 388.881L282.839 388.908L282.891 388.895L285.01 392.823L288.812 390.828C287.744 389.553 286.111 388.731 284.285 388.731C283.805 388.731 283.338 388.788 282.891 388.895L282.883 388.881ZM289.345 397.569L289.344 397.568C289.875 396.692 290.18 395.666 290.18 394.569C290.18 393.44 289.856 392.385 289.308 391.493L286.259 394.545L289.344 397.568L289.319 397.61L289.345 397.569H289.345V397.569ZM282.981 400.305L283.024 400.274C283.43 400.362 283.852 400.408 284.285 400.408C286.116 400.408 287.752 399.581 288.833 398.292L285.008 396.296L282.981 400.305V400.305ZM282.129 399.993L282.94 395.617L278.4 394.986C278.564 397.276 280.068 399.209 282.143 400.01L282.129 399.993" fill="url(#paint7_radial)"/>
<path d="M284.285 387.517C288.218 387.517 291.407 390.674 291.407 394.569C291.407 398.465 288.218 401.622 284.285 401.622C280.352 401.622 277.163 398.465 277.163 394.569C277.163 390.674 280.352 387.517 284.285 387.517V387.517ZM278.404 394.158L278.363 394.182L282.921 393.512L282.08 389.146C280.042 389.964 278.564 391.882 278.404 394.158V394.158ZM282.883 388.881L282.839 388.908L282.891 388.895L285.01 392.823L288.812 390.828C287.744 389.553 286.111 388.731 284.285 388.731C283.805 388.731 283.338 388.788 282.891 388.895L282.883 388.881ZM289.345 397.569L289.344 397.568C289.875 396.692 290.18 395.666 290.18 394.569C290.18 393.44 289.856 392.385 289.308 391.493L286.259 394.545L289.344 397.568L289.319 397.61L289.345 397.569H289.345V397.569ZM282.981 400.305L283.024 400.274C283.43 400.362 283.852 400.408 284.285 400.408C286.116 400.408 287.752 399.581 288.833 398.292L285.008 396.296L282.981 400.305V400.305ZM282.129 399.993L282.94 395.617L278.4 394.986C278.564 397.276 280.068 399.209 282.143 400.01L282.129 399.993V399.993Z" stroke="#15180F" stroke-width="0.062504" stroke-miterlimit="10" stroke-linejoin="round"/>
<path d="M286.168 393.452C286.232 393.668 286.108 393.894 285.889 393.958C285.671 394.022 285.442 393.898 285.378 393.682C285.313 393.466 285.438 393.239 285.657 393.175C285.875 393.112 286.104 393.235 286.168 393.452" fill="url(#paint8_radial)"/>
<path d="M286.079 395.272C286.143 395.488 286.018 395.715 285.8 395.779C285.582 395.842 285.353 395.719 285.288 395.502C285.224 395.286 285.349 395.059 285.567 394.996C285.785 394.932 286.014 395.056 286.079 395.272Z" fill="url(#paint9_radial)"/>
<path d="M284.337 395.913C284.401 396.129 284.276 396.356 284.058 396.42C283.84 396.483 283.611 396.36 283.546 396.143C283.482 395.927 283.607 395.701 283.825 395.637C284.043 395.573 284.272 395.697 284.337 395.913Z" fill="url(#paint10_radial)"/>
<path d="M283.171 394.339C283.235 394.555 283.11 394.782 282.892 394.846C282.674 394.909 282.445 394.786 282.38 394.57C282.316 394.354 282.441 394.127 282.659 394.063C282.877 393.999 283.106 394.123 283.171 394.339Z" fill="url(#paint11_radial)"/>
<path d="M284.333 392.83C284.397 393.047 284.272 393.273 284.054 393.337C283.836 393.401 283.607 393.277 283.542 393.061C283.478 392.845 283.603 392.618 283.821 392.554C284.039 392.491 284.268 392.614 284.333 392.83Z" fill="url(#paint12_radial)"/>
<path d="M285.08 394.339C285.2 394.742 284.967 395.165 284.56 395.284C284.153 395.403 283.725 395.172 283.605 394.769C283.485 394.366 283.718 393.943 284.125 393.824C284.533 393.705 284.96 393.936 285.08 394.339" fill="url(#paint13_radial)"/>
<path d="M284.285 385.997C279.504 385.997 275.628 389.835 275.628 394.569C275.628 399.304 279.504 403.142 284.285 403.142C289.066 403.142 292.942 399.304 292.942 394.569C292.942 389.835 289.066 385.997 284.285 385.997ZM284.285 387.517C288.218 387.517 291.407 390.674 291.407 394.569C291.407 398.465 288.218 401.622 284.285 401.622C280.352 401.622 277.163 398.465 277.163 394.569C277.163 390.674 280.352 387.517 284.285 387.517Z" fill="#2F2F2F" stroke="#15180F" stroke-width="0.124999" stroke-miterlimit="10" stroke-linejoin="round"/>
<path d="M220.095 399.03C217.488 399.03 215.374 396.937 215.374 394.354C215.374 391.772 217.488 389.678 220.095 389.678C222.703 389.678 224.817 391.772 224.817 394.354C224.817 396.937 222.703 399.03 220.095 399.03" fill="url(#paint14_linear)"/>
<path d="M220.095 399.03C217.488 399.03 215.374 396.937 215.374 394.354C215.374 391.772 217.488 389.678 220.095 389.678C222.703 389.678 224.817 391.772 224.817 394.354C224.817 396.937 222.703 399.03 220.095 399.03V399.03Z" stroke="#35343C" stroke-width="0.111737" stroke-miterlimit="10" stroke-linejoin="round"/>
<path d="M222.688 390.946L222.723 398.489H223.384L224.949 396.802L224.914 392.565L223.662 390.98L222.688 390.946Z" fill="#D51319"/>
<path d="M220.095 401.407C216.162 401.407 212.974 398.25 212.974 394.355C212.974 390.459 216.162 387.302 220.095 387.302C224.029 387.302 227.217 390.459 227.217 394.355C227.217 398.25 224.029 401.407 220.095 401.407ZM225.977 394.766L226.017 394.742L221.46 395.412L222.3 399.777C224.339 398.959 225.817 397.042 225.977 394.766V394.766ZM221.497 400.043L221.542 400.016L221.489 400.029L219.37 396.101L215.568 398.096C216.637 399.371 218.269 400.193 220.095 400.193C220.575 400.193 221.042 400.136 221.489 400.029L221.497 400.043V400.043ZM215.035 391.355L215.036 391.356C214.505 392.232 214.2 393.258 214.2 394.355C214.2 395.484 214.524 396.539 215.072 397.43L218.121 394.379L215.036 391.356L215.061 391.314L215.035 391.355V391.355ZM221.4 388.619L221.356 388.65C220.95 388.562 220.528 388.516 220.095 388.516C218.264 388.516 216.628 389.343 215.548 390.632L219.373 392.628L221.4 388.619V388.619ZM222.251 388.931L221.44 393.306L225.98 393.938C225.816 391.648 224.313 389.715 222.238 388.913L222.251 388.931Z" fill="url(#paint15_radial)"/>
<path d="M220.095 401.407C216.162 401.407 212.974 398.25 212.974 394.355C212.974 390.459 216.162 387.302 220.095 387.302C224.029 387.302 227.217 390.459 227.217 394.355C227.217 398.25 224.029 401.407 220.095 401.407ZM225.977 394.766L226.017 394.742L221.46 395.412L222.3 399.777C224.339 398.959 225.817 397.042 225.977 394.766V394.766ZM221.497 400.043L221.542 400.016L221.489 400.029L219.37 396.101L215.568 398.096C216.637 399.371 218.269 400.193 220.095 400.193C220.575 400.193 221.042 400.136 221.489 400.029L221.497 400.043V400.043ZM215.035 391.355L215.036 391.356C214.505 392.232 214.2 393.258 214.2 394.355C214.2 395.484 214.524 396.539 215.072 397.43L218.121 394.379L215.036 391.356L215.061 391.314L215.035 391.355V391.355ZM221.4 388.619L221.356 388.65C220.95 388.562 220.528 388.516 220.095 388.516C218.264 388.516 216.628 389.343 215.548 390.632L219.373 392.628L221.4 388.619V388.619ZM222.251 388.931L221.44 393.306L225.98 393.938C225.816 391.648 224.313 389.715 222.238 388.913L222.251 388.931Z" stroke="#15180F" stroke-width="0.062504" stroke-miterlimit="10" stroke-linejoin="round"/>
<path d="M218.212 395.473C218.148 395.256 218.273 395.03 218.491 394.966C218.709 394.902 218.938 395.026 219.003 395.242C219.067 395.458 218.942 395.685 218.724 395.749C218.506 395.812 218.277 395.689 218.212 395.473Z" fill="url(#paint16_radial)"/>
<path d="M218.302 393.652C218.237 393.436 218.362 393.209 218.58 393.145C218.799 393.082 219.028 393.205 219.092 393.421C219.156 393.637 219.032 393.864 218.813 393.928C218.595 393.992 218.366 393.868 218.302 393.652Z" fill="url(#paint17_radial)"/>
<path d="M220.043 393.011C219.979 392.795 220.104 392.568 220.322 392.504C220.541 392.44 220.77 392.564 220.834 392.78C220.898 392.996 220.773 393.223 220.555 393.287C220.337 393.35 220.108 393.227 220.043 393.011Z" fill="url(#paint18_radial)"/>
<path d="M221.21 394.585C221.145 394.369 221.27 394.142 221.488 394.078C221.707 394.015 221.936 394.138 222 394.354C222.064 394.571 221.939 394.797 221.721 394.861C221.503 394.925 221.274 394.801 221.21 394.585Z" fill="url(#paint19_radial)"/>
<path d="M220.048 396.093C219.984 395.877 220.108 395.65 220.327 395.587C220.545 395.523 220.774 395.647 220.838 395.863C220.903 396.079 220.778 396.306 220.559 396.369C220.341 396.433 220.112 396.309 220.048 396.093Z" fill="url(#paint20_radial)"/>
<path d="M219.301 394.585C219.181 394.182 219.413 393.758 219.821 393.64C220.228 393.521 220.655 393.751 220.775 394.155C220.895 394.558 220.662 394.981 220.255 395.1C219.848 395.219 219.42 394.988 219.301 394.585" fill="url(#paint21_radial)"/>
<path d="M220.095 402.927C224.876 402.927 228.752 399.089 228.752 394.354C228.752 389.619 224.876 385.781 220.095 385.781C215.314 385.781 211.439 389.619 211.439 394.354C211.439 399.089 215.314 402.927 220.095 402.927ZM220.095 401.407C216.162 401.407 212.974 398.249 212.974 394.354C212.974 390.459 216.162 387.301 220.095 387.301C224.029 387.301 227.217 390.459 227.217 394.354C227.217 398.249 224.029 401.407 220.095 401.407Z" fill="#2F2F2F" stroke="#15180F" stroke-width="0.124999" stroke-miterlimit="10" stroke-linejoin="round"/>
<path d="M234.485 375.341C233.177 375.665 231.87 375.989 230.454 376.382C229.037 376.775 227.512 377.237 226.446 377.576C225.38 377.915 224.773 378.131 224.485 378.247C224.197 378.362 224.228 378.378 224.298 378.439C224.368 378.501 224.477 378.609 224.648 378.678C224.819 378.748 225.053 378.779 225.185 378.825C225.317 378.871 225.348 378.933 225.411 379.018C225.473 379.102 225.566 379.21 225.652 379.287C225.738 379.364 225.815 379.411 225.854 379.434C225.893 379.457 225.893 379.457 227.162 379.526C228.43 379.596 230.967 379.734 232.656 379.834C234.345 379.935 235.185 379.996 236.026 380.058L234.485 375.341" fill="#EAE7EA"/>
<path d="M223.303 379.521C223.228 379.555 222.353 379.468 221.686 379.395C221.019 379.322 220.561 379.262 220.192 379.19C219.823 379.118 219.543 379.033 219.333 378.956C219.123 378.879 218.982 378.809 218.908 378.694C218.835 378.578 218.827 378.416 218.897 378.251C218.967 378.085 219.115 377.915 219.309 377.746C219.504 377.576 219.745 377.407 220.076 377.229C220.407 377.052 220.827 376.867 221.15 376.721C221.473 376.574 221.698 376.466 221.784 376.443C221.87 376.42 221.815 376.482 221.675 376.605C221.535 376.728 221.309 376.913 221.123 377.098C220.936 377.283 220.788 377.468 220.691 377.642C220.593 377.815 220.547 377.977 220.539 378.135C220.531 378.293 220.562 378.447 220.644 378.566C220.726 378.686 220.858 378.771 221.08 378.867C221.301 378.963 221.613 379.071 222.132 379.202C222.651 379.333 223.377 379.487 223.303 379.521" fill="#3E4147"/>
<path d="M233.691 372.81L236.026 380.046Z" fill="#3E4147"/>
<path d="M233.691 372.81L236.026 380.046" stroke="black" stroke-width="0.249999" stroke-miterlimit="10" stroke-linejoin="round"/>
<path d="M235.769 372.509L238.524 380.462Z" fill="#3E4147"/>
<path d="M235.769 372.509L238.524 380.462" stroke="black" stroke-width="0.249999" stroke-miterlimit="10" stroke-linejoin="round"/>
<path d="M271.87 380.918C272.012 380.811 272.155 380.704 272.262 380.586C272.369 380.469 272.44 380.34 272.476 380.223C272.512 380.105 272.512 379.998 272.512 379.891" stroke="black" stroke-width="2.46499" stroke-miterlimit="10" stroke-linejoin="round"/>
<path d="M271.961 399.181C269.925 399.079 265.878 399.002 261.689 398.95C257.499 398.899 253.167 398.873 249.172 398.924C245.178 398.976 241.52 399.104 238.809 399.143C236.098 399.181 234.334 399.13 233.011 399.053C231.688 398.976 230.806 398.873 230.339 398.912C229.873 398.95 229.821 399.13 229.782 399.336C229.743 399.541 229.717 399.772 229.748 399.98C229.779 400.187 229.867 400.371 230.463 400.473C231.058 400.574 232.161 400.594 234.867 400.502C237.572 400.411 241.881 400.207 245.825 400.092C249.769 399.978 253.349 399.952 256.578 400.016C259.808 400.08 262.688 400.235 265.139 400.35C267.59 400.466 269.614 400.543 270.972 400.601C272.331 400.66 273.025 400.7 273.411 400.633C273.797 400.566 273.874 400.393 273.93 400.193C273.985 399.993 274.017 399.767 274.02 399.59C274.024 399.413 273.998 399.284 271.961 399.181V399.181Z" fill="#5D5B60" stroke="black" stroke-width="0.062504" stroke-miterlimit="10" stroke-linejoin="round"/>
<path d="M229.862 400.416C233.759 400.391 237.655 400.366 240.83 400.297C244.005 400.229 246.459 400.116 248.99 400.077C251.52 400.037 254.127 400.07 256.656 400.135C259.185 400.2 261.637 400.297 263.942 400.402C266.248 400.508 268.407 400.624 269.944 400.678C271.481 400.732 272.396 400.724 273.31 400.717" stroke="black" stroke-width="2.49999" stroke-miterlimit="10" stroke-linejoin="round"/>
<path d="M198.624 394.532C197.862 394.47 197.099 394.408 196.492 394.354C195.885 394.3 195.433 394.254 194.982 394.208C195.029 394.316 195.076 394.424 195.184 394.509C195.293 394.593 195.465 394.655 195.784 394.701C196.103 394.748 196.57 394.778 196.967 394.802C197.364 394.825 197.69 394.84 197.877 394.848C198.064 394.855 198.111 394.855 198.212 394.802C198.313 394.748 198.469 394.64 198.624 394.532V394.532Z" fill="#AFB2AF" stroke="black" stroke-width="0.062504" stroke-miterlimit="10" stroke-linejoin="round"/>
<path d="M211.371 388.948C208.814 388.934 206.256 388.919 204.069 388.925C201.882 388.931 200.066 388.957 198.679 388.97C197.291 388.983 196.331 388.983 195.371 388.983" stroke="black" stroke-width="0.062504" stroke-miterlimit="10" stroke-linejoin="round"/>
<path d="M219.652 380.967C217.732 381.095 215.812 381.224 213.867 381.365C211.921 381.507 209.95 381.661 208.432 381.802C206.915 381.943 205.851 382.072 205.099 382.149C204.347 382.226 203.906 382.252 203.607 382.187C203.309 382.123 203.153 381.969 203.011 381.841C202.868 381.712 202.738 381.609 202.609 381.507C203.491 381.352 204.373 381.198 205.514 381.095C206.655 380.993 208.056 380.941 209.522 380.89C210.988 380.839 212.518 380.787 213.776 380.71C215.034 380.633 216.02 380.53 216.669 380.53C217.317 380.53 217.628 380.633 218.069 380.723C218.51 380.813 219.081 380.89 219.652 380.967" fill="#FF0000"/>
<path d="M307.56 393.838C307.544 394.239 307.529 394.64 307.451 395.164C307.373 395.688 307.233 396.335 307.124 396.782C307.015 397.229 306.937 397.476 306.859 397.722C306.875 397.245 306.89 396.767 306.875 396.243C306.859 395.719 306.813 395.148 306.797 394.701C306.781 394.254 306.797 393.931 306.836 393.753C306.875 393.576 306.937 393.545 306.999 393.561C307.062 393.576 307.124 393.638 307.217 393.692C307.311 393.746 307.435 393.792 307.56 393.838Z" fill="#2E2D35"/>
<path d="M295.022 383.231C295.431 383.655 295.84 384.079 296.399 384.56C296.958 385.042 297.668 385.582 298.237 386.001C298.806 386.42 299.235 386.718 299.629 386.988C300.022 387.258 300.382 387.499 300.742 387.74" stroke="black" stroke-width="2.49999" stroke-miterlimit="10" stroke-linejoin="round"/>
<path d="M306.871 392.913C305.645 392.913 304.42 392.913 303.087 392.894C301.754 392.874 300.315 392.836 299.478 392.797C298.641 392.759 298.408 392.72 298.175 392.682" stroke="#323535" stroke-width="0.062504" stroke-miterlimit="10" stroke-linejoin="round"/>
<path d="M308.59 399.179C308.278 399.15 307.967 399.121 307.583 399.064C307.199 399.006 306.742 398.919 305.574 398.77C304.407 398.62 302.529 398.408 300.572 398.193C298.615 397.977 296.578 397.757 294.541 397.538C294.486 398.012 294.432 398.486 294.342 398.966C294.251 399.447 294.125 399.934 294.022 400.299C293.92 400.663 293.843 400.904 293.765 401.144C294.164 401.116 294.562 401.087 295.083 401.019C295.603 400.952 296.245 400.846 296.916 400.759C297.588 400.672 298.288 400.605 298.93 400.557C299.572 400.509 300.156 400.48 300.851 400.422C301.547 400.364 302.354 400.277 303.04 400.22C303.726 400.162 304.29 400.133 304.781 400.099C305.273 400.066 305.691 400.027 306.107 400.008C306.523 399.988 306.936 399.988 307.277 399.935C307.617 399.882 307.885 399.776 308.072 399.67C308.259 399.564 308.366 399.459 308.439 399.377C308.512 399.295 308.551 399.237 308.59 399.179Z" fill="#605E63"/>
<path d="M308.337 399.162C308.071 399.181 307.422 399.13 306.333 399.008C305.243 398.886 303.713 398.693 302.247 398.526C300.781 398.359 299.381 398.218 298.285 398.128C297.189 398.038 296.398 397.999 295.976 397.941C295.554 397.884 295.503 397.807 295.522 397.723C295.541 397.64 295.632 397.55 295.833 397.492C296.034 397.434 296.346 397.408 297.292 397.428C298.239 397.447 299.822 397.511 301.248 397.595C302.675 397.678 303.946 397.781 304.724 397.871C305.503 397.961 305.788 398.038 306.151 398.147C306.514 398.256 306.955 398.398 307.338 398.539C307.721 398.68 308.045 398.821 308.265 398.937C308.486 399.053 308.603 399.142 308.337 399.162V399.162Z" fill="white" stroke="#6E6E6E" stroke-width="0.062504" stroke-miterlimit="10" stroke-linejoin="round"/>
<path d="M195.141 396.898C195.112 397.004 195.125 397.222 195.138 397.38C195.151 397.537 195.164 397.633 195.219 397.701C195.274 397.768 195.371 397.807 195.76 397.894C196.149 397.98 196.83 398.115 197.991 398.314C199.152 398.513 200.793 398.777 201.817 398.934C202.842 399.091 203.251 399.143 203.841 399.204C204.431 399.265 205.203 399.335 205.728 399.371C206.253 399.406 206.532 399.406 206.675 399.4C206.818 399.393 206.824 399.38 206.847 399.348C206.869 399.316 206.908 399.265 206.973 399.136C207.038 399.008 207.129 398.802 207.164 398.581C207.2 398.359 207.181 398.121 207.103 397.922C207.025 397.723 206.889 397.563 206.769 397.447C206.649 397.332 206.545 397.261 206.451 397.219C206.357 397.177 206.273 397.165 204.713 397.078C203.153 396.991 200.118 396.831 198.552 396.757C196.986 396.683 196.889 396.696 196.811 396.718C196.733 396.741 196.675 396.773 196.613 396.795C196.551 396.818 196.487 396.831 196.354 396.843C196.221 396.856 196.02 396.869 195.835 396.863C195.65 396.856 195.481 396.831 195.361 396.814C195.241 396.799 195.17 396.792 195.141 396.898" fill="url(#paint22_radial)"/>
<path d="M195.141 396.898C195.112 397.004 195.125 397.222 195.138 397.38C195.151 397.537 195.164 397.633 195.219 397.701C195.274 397.768 195.371 397.807 195.76 397.894C196.149 397.98 196.83 398.115 197.991 398.314C199.152 398.513 200.793 398.777 201.817 398.934C202.842 399.091 203.251 399.143 203.841 399.204C204.431 399.265 205.203 399.335 205.728 399.371C206.253 399.406 206.532 399.406 206.675 399.4C206.818 399.393 206.824 399.38 206.847 399.348C206.869 399.316 206.908 399.265 206.973 399.136C207.038 399.008 207.129 398.802 207.164 398.581C207.2 398.359 207.181 398.121 207.103 397.922C207.025 397.723 206.889 397.563 206.769 397.447C206.649 397.332 206.545 397.261 206.451 397.219C206.357 397.177 206.273 397.165 204.713 397.078C203.153 396.991 200.118 396.831 198.552 396.757C196.986 396.683 196.889 396.696 196.811 396.718C196.733 396.741 196.675 396.773 196.613 396.795C196.551 396.818 196.487 396.831 196.354 396.843C196.221 396.856 196.02 396.869 195.835 396.863C195.65 396.856 195.481 396.831 195.361 396.814C195.241 396.799 195.17 396.792 195.141 396.898V396.898Z" fill="#FF0000" stroke="black" stroke-width="0.062504" stroke-miterlimit="10" stroke-linejoin="round"/>
<path d="M241.705 384.06C241.481 383.992 241.082 383.886 240.567 383.804C240.051 383.722 239.419 383.665 238.913 383.631C238.407 383.597 238.028 383.588 237.745 383.636C237.463 383.684 237.279 383.79 237.172 383.92C237.065 384.05 237.035 384.204 237.035 384.349C237.035 384.493 237.065 384.628 237.118 384.758C237.172 384.888 237.249 385.013 237.347 385.129C237.444 385.244 237.561 385.35 237.716 385.427C237.872 385.505 238.067 385.553 238.383 385.591C238.699 385.63 239.137 385.659 239.662 385.664C240.187 385.668 240.8 385.649 241.209 385.611C241.617 385.572 241.821 385.514 241.992 385.447C242.162 385.379 242.298 385.302 242.391 385.211C242.483 385.119 242.532 385.013 242.532 384.903C242.532 384.792 242.483 384.676 242.41 384.575C242.337 384.474 242.24 384.387 242.172 384.325C242.103 384.262 242.065 384.223 242.021 384.19C241.977 384.156 241.928 384.127 241.705 384.06V384.06V384.06Z" fill="#FF0000" stroke="#4D5050" stroke-width="0.050001" stroke-miterlimit="10" stroke-linejoin="round"/>
<path d="M241.88 384.705C241.354 384.647 240.829 384.59 240.338 384.566C239.847 384.541 239.389 384.551 239.015 384.57C238.64 384.59 238.348 384.618 238.057 384.647C238.164 384.773 238.271 384.898 238.378 384.994C238.485 385.091 238.592 385.158 238.772 385.216C238.952 385.274 239.204 385.322 239.506 385.346C239.808 385.37 240.158 385.37 240.498 385.351C240.839 385.331 241.169 385.293 241.393 385.259C241.617 385.225 241.734 385.197 241.807 385.129C241.88 385.062 241.909 384.956 241.914 384.879C241.919 384.802 241.899 384.753 241.88 384.705" fill="#4D4D55"/>
</g>
<defs>
<linearGradient id="paint0_linear" x1="248.725" y1="374.994" x2="248.725" y2="398.512" gradientUnits="userSpaceOnUse">
<stop stop-color="#F5F6FA"/>
<stop offset="0.28418" stop-color="#D5DAE0"/>
<stop offset="0.419922" stop-color="#FDFDFD"/>
<stop offset="0.65918" stop-color="#9FA0A5"/>
<stop offset="0.869141" stop-color="#EEF3F5"/>
<stop offset="1" stop-color="#EEF3F5"/>
</linearGradient>
<linearGradient id="paint1_linear" x1="251.851" y1="397.479" x2="229.315" y2="397.479" gradientUnits="userSpaceOnUse">
<stop stop-color="#F5F6FA"/>
<stop offset="0.28418" stop-color="#D5DAE0"/>
<stop offset="0.419922" stop-color="#FDFDFD"/>
<stop offset="0.65918" stop-color="#9FA0A5"/>
<stop offset="0.869141" stop-color="#EEF3F5"/>
<stop offset="1" stop-color="#EEF3F5"/>
</linearGradient>
<linearGradient id="paint2_linear" x1="241.885" y1="371.457" x2="227.679" y2="371.457" gradientUnits="userSpaceOnUse">
<stop stop-color="#F5F6FA"/>
<stop offset="0.28418" stop-color="#D5DAE0"/>
<stop offset="0.419922" stop-color="#FDFDFD"/>
<stop offset="0.65918" stop-color="#9FA0A5"/>
<stop offset="0.869141" stop-color="#EEF3F5"/>
<stop offset="1" stop-color="#EEF3F5"/>
</linearGradient>
<linearGradient id="paint3_linear" x1="226.827" y1="373.006" x2="225.161" y2="373.006" gradientUnits="userSpaceOnUse">
<stop stop-color="#F5F6FA"/>
<stop offset="0.28418" stop-color="#D5DAE0"/>
<stop offset="0.419922" stop-color="#FDFDFD"/>
<stop offset="0.65918" stop-color="#9FA0A5"/>
<stop offset="0.869141" stop-color="#EEF3F5"/>
<stop offset="1" stop-color="#EEF3F5"/>
</linearGradient>
<radialGradient id="paint4_radial" cx="0" cy="0" r="1" gradientUnits="userSpaceOnUse" gradientTransform="translate(233.342 385.816) rotate(180) scale(6.01551 5.95731)">
<stop stop-color="#F5F6FA"/>
<stop offset="0.28418" stop-color="#D5DAE0"/>
<stop offset="0.419922" stop-color="#FDFDFD"/>
<stop offset="0.65918" stop-color="#9FA0A5"/>
<stop offset="0.869141" stop-color="#EEF3F5"/>
<stop offset="1" stop-color="#EEF3F5"/>
</radialGradient>
<linearGradient id="paint5_linear" x1="252.614" y1="404.808" x2="252.644" y2="377.814" gradientUnits="userSpaceOnUse">
<stop stop-color="#F5F6FA"/>
<stop offset="0.28418" stop-color="#D5DAE0"/>
<stop offset="0.419922" stop-color="#FDFDFD"/>
<stop offset="0.65918" stop-color="#9FA0A5"/>
<stop offset="0.869141" stop-color="#EEF3F5"/>
<stop offset="1" stop-color="#EEF3F5"/>
</linearGradient>
<linearGradient id="paint6_linear" x1="279.558" y1="394.57" x2="289.012" y2="394.57" gradientUnits="userSpaceOnUse">
<stop/>
<stop offset="0.404503" stop-color="white"/>
<stop offset="1"/>
</linearGradient>
<radialGradient id="paint7_radial" cx="0" cy="0" r="1" gradientUnits="userSpaceOnUse" gradientTransform="translate(277.113 394.571) scale(14.3472 14.2084)">
<stop stop-color="#F5F6FA"/>
<stop offset="0.28418" stop-color="#D5DAE0"/>
<stop offset="0.419922" stop-color="#FDFDFD"/>
<stop offset="0.65918" stop-color="#9FA0A5"/>
<stop offset="0.869141" stop-color="#EEF3F5"/>
<stop offset="1" stop-color="#EEF3F5"/>
</radialGradient>
<radialGradient id="paint8_radial" cx="0" cy="0" r="1" gradientUnits="userSpaceOnUse" gradientTransform="translate(285.658 393.177) rotate(73.4333) scale(0.816609 0.823291)">
<stop stop-color="white"/>
<stop offset="1"/>
</radialGradient>
<radialGradient id="paint9_radial" cx="0" cy="0" r="1" gradientUnits="userSpaceOnUse" gradientTransform="translate(285.569 394.997) rotate(73.4338) scale(0.816592 0.823292)">
<stop stop-color="white"/>
<stop offset="1"/>
</radialGradient>
<radialGradient id="paint10_radial" cx="0" cy="0" r="1" gradientUnits="userSpaceOnUse" gradientTransform="translate(283.827 395.638) rotate(73.4336) scale(0.816598 0.8233)">
<stop stop-color="white"/>
<stop offset="1"/>
</radialGradient>
<radialGradient id="paint11_radial" cx="0" cy="0" r="1" gradientUnits="userSpaceOnUse" gradientTransform="translate(282.661 394.064) rotate(73.4348) scale(0.816586 0.823244)">
<stop stop-color="white"/>
<stop offset="1"/>
</radialGradient>
<radialGradient id="paint12_radial" cx="0" cy="0" r="1" gradientUnits="userSpaceOnUse" gradientTransform="translate(283.823 392.556) rotate(73.4343) scale(0.816599 0.823277)">
<stop stop-color="white"/>
<stop offset="1"/>
</radialGradient>
<radialGradient id="paint13_radial" cx="0" cy="0" r="1" gradientUnits="userSpaceOnUse" gradientTransform="translate(284.127 393.825) rotate(73.4339) scale(1.5237 1.53616)">
<stop stop-color="white"/>
<stop offset="1"/>
</radialGradient>
<linearGradient id="paint14_linear" x1="224.822" y1="394.354" x2="215.369" y2="394.354" gradientUnits="userSpaceOnUse">
<stop/>
<stop offset="0.404503" stop-color="white"/>
<stop offset="1"/>
</linearGradient>
<radialGradient id="paint15_radial" cx="0" cy="0" r="1" gradientUnits="userSpaceOnUse" gradientTransform="translate(227.271 394.356) rotate(180) scale(14.3473 14.2084)">
<stop stop-color="#F5F6FA"/>
<stop offset="0.28418" stop-color="#D5DAE0"/>
<stop offset="0.419922" stop-color="#FDFDFD"/>
<stop offset="0.65918" stop-color="#9FA0A5"/>
<stop offset="0.869141" stop-color="#EEF3F5"/>
<stop offset="1" stop-color="#EEF3F5"/>
</radialGradient>
<radialGradient id="paint16_radial" cx="0" cy="0" r="1" gradientUnits="userSpaceOnUse" gradientTransform="translate(218.726 395.75) rotate(-106.567) scale(0.816604 0.823283)">
<stop stop-color="white"/>
<stop offset="1"/>
</radialGradient>
<radialGradient id="paint17_radial" cx="0" cy="0" r="1" gradientUnits="userSpaceOnUse" gradientTransform="translate(218.815 393.929) rotate(-106.566) scale(0.816592 0.823279)">
<stop stop-color="white"/>
<stop offset="1"/>
</radialGradient>
<radialGradient id="paint18_radial" cx="0" cy="0" r="1" gradientUnits="userSpaceOnUse" gradientTransform="translate(220.557 393.288) rotate(-106.566) scale(0.816591 0.823269)">
<stop stop-color="white"/>
<stop offset="1"/>
</radialGradient>
<radialGradient id="paint19_radial" cx="0" cy="0" r="1" gradientUnits="userSpaceOnUse" gradientTransform="translate(221.723 394.862) rotate(-106.566) scale(0.816598 0.823282)">
<stop stop-color="white"/>
<stop offset="1"/>
</radialGradient>
<radialGradient id="paint20_radial" cx="0" cy="0" r="1" gradientUnits="userSpaceOnUse" gradientTransform="translate(220.561 396.371) rotate(-106.566) scale(0.816599 0.823283)">
<stop stop-color="white"/>
<stop offset="1"/>
</radialGradient>
<radialGradient id="paint21_radial" cx="0" cy="0" r="1" gradientUnits="userSpaceOnUse" gradientTransform="translate(220.257 395.101) rotate(-106.566) scale(1.52371 1.53618)">
<stop stop-color="white"/>
<stop offset="1"/>
</radialGradient>
<radialGradient id="paint22_radial" cx="0" cy="0" r="1" gradientUnits="userSpaceOnUse" gradientTransform="translate(201.161 398.039) rotate(180) scale(6.21934 6.15915)">
<stop stop-color="#F5F6FA"/>
<stop offset="0.28418" stop-color="#D5DAE0"/>
<stop offset="0.419922" stop-color="#FDFDFD"/>
<stop offset="0.65918" stop-color="#9FA0A5"/>
<stop offset="0.869141" stop-color="#EEF3F5"/>
<stop offset="1" stop-color="#EEF3F5"/>
</radialGradient>
<clipPath id="clip0">
<rect width="115.66" height="33.3142" fill="white" transform="translate(194.086 370.026)"/>
</clipPath>
</defs>
</svg>